<svg xmlns="http://www.w3.org/2000/svg" width="298" height="57" version="1.0" viewBox="0 0 223.5 42.75"><defs><clipPath id="a"><path d="M.402 0h222.2v42.5H.402Zm0 0"/></clipPath></defs><g clip-path="url(#a)"><path fill="#f4f6fc" d="M.293.441h223.086v42.325H.293V.44"/></g><path d="M18.484 13.145c0-3.036-1.649-4.653-4.653-4.653h-3.617c-3.039 0-4.683 1.617-4.683 4.653v16.543c0 3.035 1.644 4.652 4.683 4.652h3.617c3.004 0 4.653-1.617 4.653-4.652v-3.489c0-.324-.192-.52-.516-.52h-3.23c-.356 0-.52.196-.52.52v2.582c0 .875-.449 1.293-1.289 1.293h-1.683c-.84 0-1.29-.418-1.29-1.293v-14.73c0-.84.418-1.293 1.29-1.293h1.683c.84 0 1.29.453 1.29 1.293v2.586c0 .32.163.515.519.515h3.23c.324 0 .516-.195.516-.515ZM21.717 29.688c0 3.035 1.613 4.652 4.652 4.652h3.617c3.036 0 4.653-1.617 4.653-4.652V13.145c0-3.036-1.617-4.653-4.653-4.653H26.37c-3.039 0-4.652 1.617-4.652 4.653Zm5.586.484c-.84 0-1.29-.418-1.29-1.293V13.953c0-.84.45-1.293 1.29-1.293h1.875c.84 0 1.293.453 1.293 1.293V28.88c0 .875-.453 1.293-1.293 1.293ZM37.87 33.824c0 .356.16.516.516.516h7.754c3.035 0 4.653-1.617 4.653-4.652V13.18c0-3.04-1.618-4.688-4.653-4.688h-7.754c-.355 0-.515.196-.515.52Zm4.391-3.75V12.758h2.973c.84 0 1.293.453 1.293 1.324v14.7c0 .874-.453 1.292-1.293 1.292ZM66.915 9.012c0-.324-.129-.52-.52-.52H54.51c-.293 0-.484.196-.484.52v24.812c0 .32.191.516.484.516h11.887c.39 0 .52-.195.52-.516v-3.23c0-.356-.13-.52-.52-.52H58.32v-6.523h6.168c.325 0 .52-.195.52-.55v-3.2c0-.356-.195-.547-.52-.547h-6.168v-6.465h8.075c.39 0 .52-.226.52-.547ZM79.45 8.492a.652.652 0 0 0-.648.649v19.64c0 .875-.453 1.293-1.293 1.293h-1.68c-.84 0-1.292-.418-1.292-1.293V9.141a.649.649 0 0 0-.645-.649h-3.101a.649.649 0 0 0-.645.649v20.547c0 3.035 1.613 4.652 4.652 4.652h3.618c3.035 0 4.652-1.617 4.652-4.652V9.14a.652.652 0 0 0-.648-.649ZM86.167 8.492c-.32 0-.515.196-.515.52v3.23c0 .32.195.516.515.516h3.75v21.066c0 .356.195.516.516.516h3.36c.355 0 .519-.16.519-.516V12.758h3.746c.355 0 .515-.195.515-.516v-3.23c0-.324-.16-.52-.515-.52ZM105.814 8.492c-3.008 0-4.652 1.617-4.652 4.653v7.625c0 .613.289 1.004.87 1.195l7.657 2.52v4.296c0 .875-.453 1.293-1.293 1.293h-1.55c-.81 0-1.294-.418-1.294-1.293v-2.484c0-.355-.16-.52-.515-.52h-3.36c-.324 0-.515.165-.515.52v3.39c0 3.036 1.644 4.653 4.652 4.653h3.617c3.035 0 4.652-1.617 4.652-4.652v-7.465c0-.614-.293-.969-.84-1.196l-7.69-2.52v-4.456c0-.84.484-1.293 1.292-1.293h1.55c.876 0 1.294.453 1.294 1.293v2.52c0 .324.195.515.515.515h3.364c.355 0 .515-.191.515-.516v-3.425c0-3.036-1.617-4.653-4.652-4.653ZM132.886 34.34c.386 0 .515-.195.453-.55l-5.363-24.845c-.067-.324-.258-.453-.551-.453h-4.489c-.293 0-.484.13-.55.453l-5.364 24.844c-.097.356.067.551.422.551h3.457c.29 0 .45-.16.516-.453l.871-4.715h5.75l.906 4.715c.067.293.227.453.516.453Zm-5.653-8.918h-4.136l2.066-11.273ZM147.521 8.492c-.387 0-.613.196-.71.582l-3.427 17.317-3.39-17.317c-.098-.386-.324-.582-.711-.582h-3.07c-.485 0-.676.258-.583.711l5.43 24.555c.098.387.324.582.711.582h3.23c.387 0 .614-.195.712-.582l5.46-24.555c.094-.453-.097-.71-.582-.71ZM169.361 34.34c.387 0 .516-.195.453-.55l-5.363-24.845c-.066-.324-.258-.453-.55-.453h-4.49c-.292 0-.484.13-.55.453l-5.363 24.844c-.098.356.066.551.422.551h3.457c.289 0 .449-.16.515-.453l.871-4.715h5.75l.907 4.715c.066.293.226.453.515.453Zm-5.652-8.918h-4.137l2.066-11.273ZM181.316 8.492c-.325.035-.516.196-.516.551v3.23c0 .325.191.516.516.516h7.656l-7.98 20.809c-.16.453.03.742.519.742l3.36-.031c.386 0 .613-.164.742-.52l9.433-24.52c.16-.452.031-.777-.484-.777ZM197.697 33.695c0 .418.223.645.644.645h2.942c.418 0 .644-.227.644-.645v-2.972c0-.422-.226-.649-.644-.649h-2.942c-.421 0-.644.227-.644.649ZM205.16 29.688c0 3.035 1.613 4.652 4.652 4.652h3.618c3.035 0 4.652-1.617 4.652-4.652V13.145c0-3.036-1.617-4.653-4.652-4.653h-3.618c-3.039 0-4.652 1.617-4.652 4.653Zm5.586.484c-.84 0-1.29-.418-1.29-1.293V13.953c0-.84.45-1.293 1.29-1.293h1.875c.84 0 1.293.453 1.293 1.293V28.88c0 .875-.453 1.293-1.293 1.293Zm0 0"/></svg>