<svg xmlns="http://www.w3.org/2000/svg" xml:space="preserve" style="enable-background:new 0 0 270.907 246.846" viewBox="0 0 270.907 246.846"><path d="M131.835 67.087c-3.066-1.134-6.689-.936-9.503-2.655-1.933-1.182-.292-4.452.045-6.254.279-1.494.212-3.051.097-4.555-.458-5.924-7.684-10.504-13.114-10.858-7.249-.474-13.73 4.464-20.918 3.574-8.18-1.015-2.843-10.645-1.233-15.02 1.497-4.071 2.848-8.621 2.04-12.984-.862-4.649-5.469-7.203-9.938-6.927-5.5.343-10.295 5.499-13.841 9.184-5.085 5.28-9.288 11.421-12.667 17.914-.701 1.349.839 1.384 1.415.369 3.685-6.505 8.23-12.463 13.593-17.676 4.378-4.255 10.256-8.931 16.116-4.381 3.782 2.935 2.108 8.965.901 12.727-1.335 4.16-3.668 8.135-4.291 12.488-.801 5.617 4.028 8.271 8.945 8.081 7.25-.281 13.366-5.302 20.837-3.92 3.377.624 6.549 2.732 8.661 5.394 2.636 3.319 1.36 7.275.655 10.97-1.064 5.559 8.353 5.559 11.661 5.708.439.02 1.114-.965.539-1.179z" style="fill:#66b341"/><path d="M257.946 87.192c-2.577-.985-5.096-1.96-7.37-3.563-3.168-2.231-3.69-5.447-3.969-9.058-.227-2.942-.162-5.937-1.357-8.683-1.029-2.362-4.412-1.968-6.414-1.625-3.21.55-6.378 2.11-9.447 3.163-1.779.613-3.732.927-5.564 1.361-2.184.521-4.793 1.321-7.07 1.118-3.494-.315-5.609-4.938-7-7.633-1.629-3.152-2.867-6.48-4.266-9.735-2.259-5.252-4.807-11.382-10.304-13.928-2.794-1.295-5.033-2.565-8.186-2.858-2.563-.24-5.092.234-7.504 1.076-5.29 1.845-9.228 6.552-11.591 11.451-1.332 2.763-1.961 5.749-3.13 8.562-1.224 2.945-1.979 5.842-1.711 9.044.139 1.647 2.591-.358 2.518-1.541-.22-3.593 1.377-6.292 2.408-9.579.927-2.953 2.036-5.811 3.647-8.465 3.351-5.517 9.723-7.999 15.915-6.646 13.221 2.891 14.588 18.313 20.721 28.014 3.022 4.776 6.335 5.975 11.737 4.643 3.372-.832 6.829-1.653 10.068-2.906 3.313-1.28 6.649-3.056 10.2-3.501 6.289-.788 4.282 11.617 5.898 15.46 1.776 4.226 7.033 6.203 11.195 6.849.432.068 1.119-.812.576-1.02z" style="fill:#424e32"/><path d="M207.697 64.657c-2.386 1.803-5.272 2.896-8.047 3.962-3.969 1.522-6.718.03-10.249-1.751a121.865 121.865 0 0 0-15.718-6.618c-2.306-.783-4.662-1.846-7.092-2.088-2.087-.209-4.674.828-6.616 1.446-1.886.603-3.689 1.409-5.415 2.358l.01-.027c2.09-6.49 3.143-12.813 2.354-19.608-.781-6.722-2.604-13.311-4.124-19.893-1.313-5.689-3.184-11.687-7.071-16.2-.527-3.175-6.191-2.498-8.747-2.427-2.5.07-5.531 1.354-7.819 2.268-.688.277-1.362.597-2.022.945-2.248.784-4.398 1.783-6.323 3.048-4.104 2.7-5.265 9.022-6.689 13.35-.948 2.881-1.711 5.807-2.2 8.8-.265 1.617-.903 5.146.387 6.501.439.461.945.639 1.478.651 2.506 2.159 5.805 3.779 8.561 5.456 3.491 2.126 6.803 4.475 9.111 7.91 1.957 2.909 2.977 6.028 3.359 9.233-2.112-3.29-5.52-5.893-8.998-7.544-4.048-1.922-7.195-1.611-11.126.35-4.739 2.363-9.394 5.223-13.881 8.036-2.233 1.398-6.582 4.15-9.142 2.169-2.121-1.641-3.931-5.755-4.2-8.302-.056-.53-.731.056-.805.289-1.47 4.578.288 8.876 2.17 13.085 2.104 4.701 5.565 7.664 10.749 8.123 5.175.459 10.903-2.117 15.447-4.25 5.138-2.409 14.038-9.246 19.506-4.111a.18.18 0 0 0 .106.05c-.392 2.788-1.071 5.568-1.859 8.265-.367 1.034-.542 2.086-.096 3.175.629 1.529 4.617 1.775 5.942 1.861 2.456.164 4.878-.555 6.912-1.903 1.274-.846 1.732-2.449 2.157-3.891.376-.586.737-1.18 1.085-1.781 1.538-1.217 3.2-2.064 5.226-2.658 3.883-1.138 7.52-.179 11.333.738a104.67 104.67 0 0 0 17.209 2.672c5.663.393 12.341 1.165 17.774-.824 3.886-1.423 6.012-7.224 7.961-10.38.339-.548-.15-.823-.598-.485z" style="fill:#66b341"/><path d="M115.043 23.344c1.477-4.636 2.674-10.573 7.136-13.182.02-.011.04-.021.059-.033l-.515.358c-.261.182-.38.834.07.564 1.695-1.017 3.366-2.075 5.091-3.04.253-.144.509-.274.767-.401a46.6 46.6 0 0 1 9.715-2.422c.145-.019.33-.366.122-.346-1.046.1-2.11.236-3.181.408 2.073-.578 4.013-.495 6.192-.443 1.394.032 3.046.108 3.987 1.337.84 1.096-.029 2.984-.41 4.064-1.497 4.235-4.503 8.289-7.393 11.668-3.221 3.766-6.785 7.057-10.77 10.001-3.338 2.467-7.061 5.03-10.983 6.438-4.603 1.651-.441-13.23.113-14.971z" style="fill:#66b341"/><path d="M202.822 72.416c-2.521 3.365-7.614 3.039-11.387 2.968-6.228-.118-12.376-.681-18.539-1.559-5.893-.84-15.005-3.907-21.245-1.252-1.521 1.147-3.522 2.157-4.312 3.972a7.463 7.463 0 0 0-.206.546c.038-.036.075-.071.111-.108-.064.163-.126.326-.186.491-.03.052-.061.101-.091.15-.241.824-.464 1.649-1.042 2.285a3.924 3.924 0 0 1-1.13 1.059c-1.461.902-3.292 1.082-4.968 1.1-1.511.014-2.925-.253-4.358-.693-2.747-.844-1.94-3.828-1.299-5.742.03-.089.016-.133-.017-.155.53-1.916.95-3.833 1.23-5.749a8.168 8.168 0 0 0-.267-.416c-.11-.161-.224-.32-.335-.48l-.007.082c-2.505-2.602-7.165-1.762-10.164-.676-5.145 1.86-9.698 5.108-14.868 7.001-5.527 2.026-11.971 3.323-16.749-.964-1.937-1.737-3.177-4.467-4.144-6.826-1.161-2.831-2.195-5.499-1.88-8.397.691 2.818 2.374 6.602 4.623 7.43 3.701 1.364 8.248-2.104 11.214-3.918 2.243-1.37 4.57-2.595 6.832-3.934 3.036-1.797 6.155-3.968 9.696-4.536 5.108-.821 11.958 4.364 15.035 8.552.477.428.938.876 1.366 1.354-.105-3.358-.8-6.701-2.357-10.007-1.762-3.74-4.79-6.332-8.181-8.574-3.292-2.179-7.243-3.82-10.476-6.165.802-.213 1.61-.651 2.299-.988 2.67-1.303 5.189-3.021 7.627-4.713 4.663-3.235 8.67-7.137 12.412-11.377 3.537-4.008 7.14-9.03 8.539-14.247.077-.283.122-.547.149-.793 3.312 4.587 4.936 10.467 6.192 15.828 1.407 6.004 2.955 12.024 3.867 18.128 1.061 7.1.138 14.364-2.008 21.299a40.604 40.604 0 0 0-5.756 4.099.31.31 0 0 0-.078.104c2.835-1.928 5.941-3.86 9.167-4.915a38.256 38.256 0 0 1 7.785-2.267c2.644-.472 5.656 1.203 8.114 1.996 3.116 1.005 6.153 2.259 9.156 3.562 4.275 1.853 9.202 5.559 13.988 5.657 2.065.043 4.352-1.285 6.204-2.056 1.454-.603 2.874-1.293 4.204-2.127-1.187 2.032-2.346 4.081-3.76 5.971z" style="fill:#66b341"/><path d="M207.697 64.657c-2.386 1.803-5.272 2.896-8.047 3.962a9.768 9.768 0 0 1-1.633.47c-3.913 1.859-8.214 2.864-12.627 2.728-6.752-.208-13.051-3.183-19.749-3.88-3.629-.378-7.38-.292-10.917.675-1.737.477-3.381 1.063-4.903 2.035-1.119.717-2.199 1.345-3.528 1.542-.329.049-.513-.274-.311-.534 3.293-4.259 7.618-8.046 12.559-10.252 2.592-1.156 5.396-2.479 8.267-3.21-.072-.009-.144-.023-.217-.03-2.087-.209-4.674.828-6.616 1.446-1.886.603-3.689 1.409-5.415 2.358l.01-.027c2.09-6.49 3.143-12.813 2.354-19.608-.781-6.722-2.604-13.311-4.124-19.893-1.313-5.689-3.184-11.687-7.071-16.2-.527-3.175-6.191-2.498-8.747-2.427-2.5.07-5.531 1.354-7.819 2.268-.688.277-1.362.597-2.022.945-2.248.784-4.398 1.783-6.323 3.048-.805.53-1.495 1.204-2.098 1.97 1.64-1.011 3.398-1.845 5.167-2.566 3.423-1.395 7.719-2.97 11.485-2.293 3.96.712 3.057 4.306 1.815 7.134-3.297 7.511-9.187 14.569-15.467 19.803-2.398 1.999-5.259 3.995-8.452 4.356-.153.018-.308.03-.465.041 5.107.344 9.975-1.436 14.16-4.626 2.456-1.869 4.675-4.036 6.715-6.349a87.73 87.73 0 0 0 2.701-3.203c.738-.92 1.434-2.094 2.423-2.764 1.191-.808 2.144-.258 2.618 1.025.872 2.36 1.196 5.049 1.682 7.51 1.314 6.665 2.149 13.512 1.179 20.279-.036.242-.385.302-.535.142-1.843-1.973-2.6-4.613-3.745-6.999-.211-.44-.439-.87-.673-1.3 1.312 3.608 2.012 7.464 1.436 11.034-.037.229-.39.317-.534.141-1.854-2.265-3.375-4.789-5.263-7.027-.92-1.088-1.992-1.985-3.071-2.877a38.488 38.488 0 0 1 3.449 5.647c1.393 2.833 2.634 6.026 2.063 9.231-.042.231-.386.315-.535.141-1.626-1.888-3.384-3.647-5.161-5.39 1.79 2.798 2.748 5.78 3.113 8.842-1.467-2.285-3.564-4.229-5.871-5.762 1.832 2.293 3.257 4.895 3.977 7.752.074.29-.318.569-.533.311-1.951-2.341-4.446-4.432-7.544-4.945-2.639-.438-5.327.099-7.731 1.24-2.585 1.229-4.933 2.906-7.051 4.824-2.025 1.833-4.093 3.71-6.63 4.817-4.773 2.085-10.169.908-13.215-3.54-1.431-2.09-2.226-4.498-2.194-7.042.002-.146.001-.335.004-.545-.287-.863-.484-1.694-.559-2.402-.056-.53-.731.056-.805.289-1.47 4.578.288 8.876 2.17 13.085 2.104 4.701 5.565 7.664 10.749 8.123 5.175.459 10.903-2.117 15.447-4.25 5.138-2.409 14.038-9.246 19.506-4.111a.18.18 0 0 0 .106.05c-.08.569-.18 1.138-.282 1.706a9.693 9.693 0 0 1 3.047-2.207c.234-.107.454.022.482.275.46 4.223-1.157 9.979 2.143 13.359a.33.33 0 0 1 .081.151 11.4 11.4 0 0 0 5.429-1.888c1.274-.846 1.732-2.449 2.157-3.891.376-.586.737-1.18 1.085-1.781 1.538-1.217 3.2-2.064 5.226-2.658 3.883-1.138 7.52-.179 11.333.738a104.67 104.67 0 0 0 17.209 2.672c5.663.393 12.341 1.165 17.774-.824 3.886-1.423 6.012-7.224 7.961-10.38.338-.547-.151-.822-.599-.484z" style="fill:#44832d"/><path d="M141.008 7.846c-.208 5.351-2.126 10.418-4.497 15.179 2.546-3.307 4.209-7.257 7.074-10.345.153-.166.382-.093.502.063 5.822 7.618 8.045 17.485 8.326 26.919.281 9.402-1.122 19-4.469 27.814 2.578-1.535 5.077-3.461 7.095-5.759-.16.084-.322.162-.48.249l.01-.027c2.09-6.49 3.143-12.813 2.354-19.608-.781-6.722-2.604-13.311-4.124-19.893-1.313-5.689-3.184-11.687-7.071-16.2-.36-2.17-3.119-2.54-5.646-2.535.865 1.106.981 2.729.926 4.143zM135.324 70.692c-1.136-1.772-2.993-3.171-4.794-4.095-2.658-1.367-5.449-1.619-8.354-.902-2.594.641-5.198 1.636-7.502 2.999-1.954 1.156-3.717 2.571-5.586 3.85-3.705 2.531-7.724 3.773-12.234 3.175-1.841-.244-3.67-.708-5.343-1.469 2.021 2.243 4.678 3.628 8.08 3.93 5.175.459 10.903-2.117 15.447-4.25 5.138-2.409 14.038-9.246 19.506-4.111a.18.18 0 0 0 .106.05c-.08.569-.18 1.138-.282 1.706.299-.317.622-.607.956-.883z" style="opacity:.4;fill:#44832d"/><path d="M265.976 142.289c-2.575-19.94-10.977-45.001-30.252-49.8-.262-.233-.522-.467-.79-.693-10.676-9.055-23.869-13.139-37.126-13.388a59.05 59.05 0 0 0-2.963-1.998c-11.861-7.404-24.864-9.378-37.987-7.87a37.544 37.544 0 0 0-2.728-1.871c-6.107-3.785-12.102-4.553-18.676-3.932-6.576-.621-12.57.146-18.677 3.932a37.544 37.544 0 0 0-2.728 1.871c-13.124-1.508-26.126.466-37.987 7.87a59.023 59.023 0 0 0-2.962 1.998c-13.258.249-26.45 4.333-37.127 13.388-.268.227-.528.46-.79.693-19.274 4.799-27.675 29.859-30.251 49.8C3.3 154.909 3.837 167.72 7.667 179.8c2.392 7.543 6.976 16.604 13.515 21.354 5.678 11.221 14.212 20.559 24.754 26.103 7.712 4.054 15.802 5.996 24.015 6.053 5.194 2.32 10.719 4.036 15.938 5.919 7.538 2.72 15.435 4.369 23.377 3.804 4.271-.305 8.473-1.304 12.59-2.654 4.428 1.06 9.015 1.372 13.597 1.316 4.582.056 9.169-.257 13.595-1.316 4.12 1.351 8.32 2.35 12.592 2.654 7.943.565 15.84-1.084 23.376-3.804 5.221-1.883 10.746-3.599 15.94-5.919 8.211-.057 16.301-1.999 24.014-6.053 10.543-5.544 19.077-14.882 24.755-26.103 6.538-4.751 11.122-13.811 13.513-21.354 3.83-12.08 4.37-24.891 2.738-37.511z" style="fill:#8d4500"/><path d="M5.854 146.691c1.475-20.449 9.041-46.47 28.021-53-11.553 11.054-16.966 27.369-19.49 43.798-2.765 17.99-2.999 36.737 2.776 54.058a71.038 71.038 0 0 0 1.686 4.497c-11.351-11.943-14.218-32.39-12.993-49.353z" style="fill:#f47515"/><path d="M56.463 229.306c-7.889-2.353-15.252-6.682-21.451-12.576-3.991-3.793-7.354-8.193-10.153-12.997-1.649-2.335-3.141-4.818-3.964-7.621a28.642 28.642 0 0 1-.917-2.56c-3.086-7.97-4.918-16.586-5.625-25.211-.797-9.725-.132-19.554 1.229-29.178 1.483-10.471 3.902-20.683 8.41-30.08 2.696-5.621 6.313-10.376 10.538-14.335 1.665-1.995 3.768-3.511 5.958-4.794 8.27-5.716 18.019-9.028 27.639-10.176a68.143 68.143 0 0 1 3.543-.323C60.868 87.666 52.7 99.626 47.085 112.71c-6.52 15.188-9.363 32.126-9.117 48.896.254 17.413 4.044 36.206 11.583 51.535 3.519 7.153 8.343 13.508 14.886 17.357.464.273.934.536 1.409.795-3.174-.37-6.323-1.075-9.383-1.987z" style="fill:#f47515"/><path d="M106.644 241.374c-8.405.159-16.538-2.627-24.421-5.63-.021-.001-.041.006-.064.001-1.746-.344-3.385-.978-5.04-1.674-1.592-.67-3.26-1.141-4.829-1.867a27.183 27.183 0 0 1-3.197-1.757c-4.39-2.103-8.473-4.757-11.986-8.919-5.873-6.96-9.465-16.253-12.096-25.212-10.17-34.631-6.932-75.932 15.32-104.086A65.784 65.784 0 0 1 72.06 80.671a8.14 8.14 0 0 1 .591-.551c.854-.707 1.742-1.263 2.648-1.761a59.052 59.052 0 0 1 10.733-5.67c8.611-3.457 17.869-4.132 26.984-3.354-5.087 4.064-9.414 9.423-13.169 14.891-9.436 13.736-14.668 30.574-16.928 47.541-2.647 19.877-1.13 40.244 3.121 59.704 3.682 16.855 10.495 34.439 24.302 43.892 2.711 1.855 5.567 3.204 8.518 4.168-3.988 1.071-8.048 1.766-12.216 1.843z" style="fill:#f47515"/><path d="M147.548 239.37a9.04 9.04 0 0 1-.962.155c.03.014.063.024.095.037-3.681.814-7.449 1.158-11.228 1.275-3.782-.117-7.547-.462-11.228-1.275.031-.013.063-.023.096-.037a8.96 8.96 0 0 1-.962-.155c-1.417-.232-2.828-.513-4.103-1.243a35.653 35.653 0 0 1-3.623-1.508c-7.919-3.854-13.994-11.221-18.504-19.238-9.467-16.828-12.854-38.623-13.823-58.153-.961-19.294 1.437-39.136 8.375-56.927 4.675-11.99 12.526-25.298 22.986-32.809l.043.006a39.622 39.622 0 0 1 1.902-1.393c1.227-.844 2.485-1.638 3.866-2.013 3.059-1.41 6.297-2.316 9.71-2.562a32.355 32.355 0 0 1 1.618-.065c.073.145.216.292.333.282a110.57 110.57 0 0 1 3.314-.224c1.107.058 2.212.133 3.314.224.116.01.259-.137.331-.282.54.013 1.08.026 1.619.065 3.412.246 6.649 1.152 9.708 2.562 1.382.375 2.64 1.169 3.866 2.013.649.447 1.284.908 1.903 1.393l.042-.006c10.461 7.511 18.312 20.818 22.987 32.809 6.938 17.791 9.337 37.633 8.376 56.927-.971 19.53-4.356 41.325-13.824 58.153-4.511 8.018-10.585 15.385-18.504 19.238a35.464 35.464 0 0 1-3.623 1.508c-1.272.73-2.685 1.011-4.1 1.243z" style="fill:#f47515"/><path d="M198.617 232.204c-1.57.727-3.237 1.197-4.828 1.867-1.655.696-3.295 1.33-5.041 1.674-.023.005-.043-.002-.064-.001-7.883 3.003-16.016 5.789-24.422 5.63-4.168-.077-8.228-.772-12.215-1.843 2.95-.964 5.807-2.313 8.517-4.168 13.808-9.452 20.62-27.037 24.301-43.892 4.252-19.46 5.769-39.827 3.121-59.704-2.259-16.967-7.491-33.805-16.926-47.541-3.757-5.468-8.084-10.826-13.169-14.891 9.114-.777 18.373-.103 26.983 3.354a59.02 59.02 0 0 1 10.733 5.67c.906.498 1.794 1.054 2.649 1.761.209.174.402.359.59.551a65.717 65.717 0 0 1 11.729 11.559c22.253 28.154 25.492 69.455 15.321 104.086-2.631 8.959-6.224 18.252-12.096 25.212-3.512 4.162-7.596 6.816-11.986 8.919a26.96 26.96 0 0 1-3.197 1.757z" style="fill:#f47515"/><path d="M250.012 196.111c-.824 2.803-2.317 5.286-3.964 7.621-2.798 4.804-6.163 9.204-10.154 12.997-6.197 5.894-13.562 10.224-21.451 12.576-3.059.912-6.209 1.617-9.38 1.987.473-.259.943-.521 1.407-.795 6.543-3.85 11.368-10.204 14.886-17.357 7.538-15.329 11.328-34.122 11.583-51.535.247-16.77-2.597-33.708-9.117-48.896-5.616-13.084-13.784-25.044-24.586-33.255 1.182.078 2.363.184 3.543.323 9.62 1.147 19.369 4.46 27.64 10.176 2.19 1.283 4.293 2.799 5.958 4.794 4.224 3.959 7.841 8.714 10.538 14.335 4.508 9.397 6.925 19.609 8.409 30.08 1.362 9.624 2.028 19.453 1.23 29.178-.707 8.625-2.54 17.241-5.625 25.211a29.612 29.612 0 0 1-.917 2.56z" style="fill:#f47515"/><path d="M252.06 196.044a72.92 72.92 0 0 0 1.685-4.497c5.774-17.32 5.541-36.067 2.777-54.058-2.526-16.429-7.938-32.744-19.492-43.798 18.98 6.53 26.546 32.551 28.022 53 1.223 16.963-1.641 37.41-12.992 49.353z" style="fill:#f47515"/><path d="M265.976 142.289c-2.575-19.94-10.977-45.001-30.252-49.8-.262-.233-.522-.467-.79-.693-10.676-9.055-23.869-13.139-37.126-13.388a59.05 59.05 0 0 0-2.963-1.998c-11.861-7.404-24.864-9.378-37.987-7.87a37.544 37.544 0 0 0-2.728-1.871c-6.107-3.785-12.102-4.553-18.676-3.932-6.576-.621-12.57.146-18.677 3.932a37.544 37.544 0 0 0-2.728 1.871c-13.124-1.508-26.126.466-37.987 7.87a59.023 59.023 0 0 0-2.962 1.998 67.32 67.32 0 0 0-4.896.271c-5.999 8.256-11.833 16.716-16.191 25.941 6.447-8.278 12.478-17.246 21.211-23.271 4.883-3.37 9.959-5.306 15.71-6.479 2.762-.563 5.563-1.053 8.379-1.241 1.706-.113 4.163-.405 5.711.558 1.083.677.806 1.782.46 2.846-.629 1.936-1.518 3.793-2.421 5.62 3.834-4.174 8.491-7.666 13.976-9.308 2.355-.705 5.139-1.01 6.879 1.081 1.999 2.405 1.275 6.389.841 9.178-.712 4.575-1.971 9.03-3.052 13.524-1.036 4.315-1.663 8.646-2.132 13.056-.861 8.092-1.544 16.674.449 24.663 2.253-12.062 3.511-24.323 6.491-36.244 1.275-5.102 2.577-10.24 4.135-15.264 1.378-4.444 2.996-8.955 5.773-12.738.142-.193.415-.216.552 0 2.898 4.565 2.445 10.095 3.229 15.264.703-4.415 1.087-8.876 1.94-13.269.052-.271.462-.314.585-.077 11.377 22.063 14.874 47.455 13.564 72.019-.631 11.81-2.258 24.524-8.482 34.839-2.833 4.692-6.663 8.824-11.508 11.476-5.175 2.836-11.11 4.021-16.979 4.129-9.045.162-17.72-2.971-23.43-10.211-5.682-7.2-8.092-16.48-9.134-25.442-1.214-10.439-.707-21.042.674-31.437a162.727 162.727 0 0 1 2.533-14.322c-1.14 3.543-2.205 7.112-3.138 10.717-2.447 9.453-4.129 19.106-4.775 28.857-.246 3.685-.439 7.376-.208 11.066.182 2.886.428 5.767.513 8.656.157 5.332.205 11.897-3.087 16.428-3.259 4.483-9.891 5.752-15.014 4.191-5.769-1.754-10.102-6.464-13.039-11.561-3.549-6.155-5.109-12.816-6.051-19.805-1.319-9.784-1.232-19.796.023-29.581 1.185-9.245 5.381-17.898 6.089-27.21-4.229 5.233-7.137 11.482-9.422 17.768a151.415 151.415 0 0 0-5.751 20.104c-3.627 17.005-3.608 34.652.851 51.502.077.288-.323.569-.535.309a89.27 89.27 0 0 1-3.275-4.253c-10.006-13.936-15.065-30.547-13.883-47.717 1.148-16.681 7.17-32.564 14.867-47.275-15.347 15.643-20.802 38.8-22.415 60.023-.022.28-.457.479-.596.161-2.46-5.688-3.418-12.009-3.489-18.332a116.114 116.114 0 0 0-.703 4.671C3.3 154.909 3.837 167.72 7.667 179.8c2.392 7.543 6.976 16.604 13.515 21.354 5.678 11.221 14.212 20.559 24.754 26.103 7.712 4.054 15.802 5.996 24.015 6.053 5.194 2.32 10.719 4.036 15.938 5.919 7.538 2.72 15.435 4.369 23.377 3.804 4.271-.305 8.473-1.304 12.59-2.654 4.428 1.06 9.015 1.372 13.597 1.316 4.582.056 9.169-.257 13.595-1.316 4.12 1.351 8.32 2.35 12.592 2.654 7.943.565 15.84-1.084 23.376-3.804 5.221-1.883 10.746-3.599 15.94-5.919 8.211-.057 16.301-1.999 24.014-6.053 10.543-5.544 19.077-14.882 24.755-26.103 6.538-4.751 11.122-13.811 13.513-21.354 3.83-12.08 4.37-24.891 2.738-37.511zm-44.139 9.897c-.284 13.145-3.45 27.189-13.072 36.751-.201.199-.539.052-.545-.227-.286-13.234-1.428-26.323-3.689-39.263-.31 3.888-.936 7.743-2.076 11.538-.105.349-.619.279-.627-.084-.724-30.336-13.585-59.38-31.283-83.587-.158-.216.063-.457.276-.48 10.091-1.068 19.298 4.378 26.279 11.207 7.182 7.028 12.85 15.611 16.976 24.751 5.503 12.188 8.05 26.051 7.761 39.394zm19.902 16.87c-.192.259-.565.167-.595-.162-.713-7.846-1.399-15.717-2.87-23.466-1.202-6.338-2.91-12.611-4.56-18.849a286.443 286.443 0 0 0-.905-3.346c-4.384-11.646-9.988-22.813-17.783-32.428-.178-.22-.021-.661.312-.533 5.104 1.939 9.82 4.812 13.954 8.379 19.283 16.631 28.695 48.598 12.447 70.405z" style="opacity:.4;fill:#d47d2c"/><path d="M265.976 142.289c-.783-6.061-2.108-12.591-4.109-18.883.502 5.794 1.006 11.594 1.018 17.411.013 6.239-.374 12.673-2.574 18.572-.111.294-.516.314-.618 0-2.54-7.898-3.555-16.186-4.898-24.372.124 5.219-.102 10.441-.464 15.724-.528 7.7-1.554 15.498-3.275 23.023-1.675 7.323-4.083 14.619-8.359 20.862-.172.252-.599.174-.596-.162.058-7.215 2.152-14.379 1.488-21.591-3.079 12.526-4.589 26.285-13.088 36.521-.218.263-.602-.021-.534-.311 3.759-16.044 6.343-32.536 5.781-49.06-.421-12.431-2.672-24.673-7.041-36.222 6.308 23.803-3.301 49.88-9.311 72.985-.09.344-.65.28-.629-.084.614-10.393 1.91-20.79 2.455-31.2-1.357 5.977-3.241 11.851-5.775 17.555-3.088 6.951-6.335 13.887-10.591 20.212-3.971 5.899-8.817 11.654-15.335 14.805-.201.099-.497-.015-.48-.275.632-9.728 4.189-19.016 4.725-28.727-2.357 10.653-4.856 21.343-10.522 30.806-.194.323-.653.102-.585-.246 1.452-7.407 3.874-14.573 5.468-21.947 1.581-7.323 2.088-14.958 2.467-22.431.497-9.777.427-19.554-.273-29.32-.357-5.01-.87-10.018-1.772-14.959-.675-3.689-1.692-7.252-2.608-10.878-1.206-4.767-2.505-9.518-4.071-14.179l-.059-.17c.208 1.771.383 3.546.512 5.325.71 9.692.38 19.423-1.154 29.023-1.563 9.795-2.88 19.678-5.406 29.285-2.018 7.677-4.269 15.443-6.969 22.908-2.48 6.855-5.571 13.843-10.854 19.021-.234.23-.604-.002-.533-.31 3.137-13.699 6.53-27.295 8.425-41.238.256-1.883.502-3.766.74-5.653-1.913 7.556-4.357 14.975-7.222 22.163-2.691 6.756-5.677 13.54-9.492 19.746-3.363 5.468-7.725 11.35-14.114 13.366a.316.316 0 0 1-.36-.148c-4.234-7.772-2.023-17.219-3.129-25.754-.264 3.136-.581 6.269-1.108 9.371-.786 4.615-1.878 9.745-4.822 13.526-2.714 3.482-6.766 4.484-10.9 2.991-13.708-4.947-18.906-20.194-24.063-32.605.801 8.625 4.363 16.7 5.93 25.192.063.341-.399.581-.584.246-9.515-17.148-12.002-36.43-15.339-55.437.181 8.251.855 16.478 1.56 24.702.366 4.271.62 8.559 1.026 12.827.273 2.888.816 5.743 1.272 8.604.539 3.37 1.06 6.768 1.193 10.183.111 2.885.1 6.064-1.038 8.775-1.759 4.188-5.621 5.459-9.809 4.104-5.159-1.672-9.677-5.298-13.628-8.908-3.655-3.34-6.99-6.937-9.725-11.07-13.616-20.57-17.552-46.513-14.712-71.121-2.063 9.439-2.606 19.246-2.347 28.894.224 8.355.819 16.76 2.194 25.011.691 4.152 1.56 8.275 2.719 12.323 1.012 3.535 2.784 6.895 2.888 10.633.006.199-.209.376-.404.31-5.542-1.936-9.819-6.602-13.281-11.156-3.908-5.141-7.427-10.739-9.815-16.751-5.338-13.424-5.622-27.758-5.862-41.994-2.848 13.507-2.187 27.497-.685 41.144.039.348-.432.39-.596.161a76.42 76.42 0 0 1-6.597-11.172 73.942 73.942 0 0 0 1.945 7.532c2.392 7.543 6.976 16.604 13.515 21.354 5.678 11.221 14.212 20.559 24.754 26.103 7.712 4.054 15.802 5.996 24.015 6.053 5.194 2.32 10.719 4.036 15.938 5.919 7.538 2.72 15.435 4.369 23.377 3.804 4.271-.305 8.473-1.304 12.59-2.654 4.428 1.06 9.015 1.372 13.597 1.316 4.582.056 9.169-.257 13.595-1.316 4.12 1.351 8.32 2.35 12.592 2.654 7.943.565 15.84-1.084 23.376-3.804 5.221-1.883 10.746-3.599 15.94-5.919 8.211-.057 16.301-1.999 24.014-6.053 10.543-5.544 19.077-14.882 24.755-26.103 6.538-4.751 11.122-13.811 13.513-21.354 3.83-12.077 4.37-24.888 2.738-37.508z" style="opacity:.4;fill:#d47d2c"/><path d="M73.246 84.158C57.15 95.44 50.767 115.486 47.364 133.897c-.352 1.91 2.318.532 2.61-.593 2.25-8.645 4.24-17.359 7.67-25.636 3.383-8.16 8.813-16.89 15.951-22.311.589-.446.543-1.825-.349-1.199zM44.696 89.894c-6.985 6.163-13.422 13.304-17.274 21.904-3.862 8.624-6.386 18.424-6.435 27.906-.006 1.194 1.628-.316 1.754-.853 2.006-8.531 3.026-17.043 6.238-25.283 3.417-8.771 9.314-16.507 16.084-22.941.467-.444.276-1.3-.367-.733zM107.79 80.81c-3.31 5.129-7.066 9.861-9.603 15.451-2.474 5.455-4.511 11.773-4.967 17.768-.135 1.755 2.075.472 2.327-.531 1.402-5.541 2.794-11.12 4.879-16.452 2.206-5.644 5.874-10.577 8.762-15.872.732-1.342-.791-1.307-1.398-.364zM199.289 96.427c-.814-2.402-3.021-4.652-4.71-6.517-1.938-2.139-4.452-3.327-6.788-4.948-.729-.507-1.99 1.049-1.336 1.649 1.879 1.723 3.986 3.164 5.711 5.055 1.835 2.012 3.025 5.145 5.304 6.667.957.636 2.105-1.062 1.819-1.906z" style="fill:#f47515"/><path d="M33.919 187.114c-.217-2.003-3.354-14.563-7.383-9.515-.85-.059-1.616.313-2.125 1.512-1.098 2.587.389 6.208 1.48 8.56.894 1.92 2.885 5.624 5.317 5.659 2.926.04 2.903-4.444 2.711-6.216zM39.07 201.374c-.024-.156-.087-.294-.228-.382-.205-.127-.295-.146-.538-.15-.83-.014-2.056 1.46-1.555 2.266.091.147.175.292.26.438-.037.941.071 2.02.969 2.49.792.415 1.811-.602 1.85-1.388.059-1.148-.164-2.289-.758-3.274zM60.83 192.025c-.54-3.393-2.413-6.945-4.686-9.516-2.193-2.481-4.784-.487-5.562 2.106a5.92 5.92 0 0 0-.179.881c-1.021 2.561-.859 5.555-.122 8.263.671 2.457 3.48 9.116 7.231 7.709 3.706-1.391 3.846-6.128 3.318-9.443zM82.873 216.086c-.009-.438-.485-.896-.367-1.265.181-.566.097-1.38-.687-1.312-.444.039-.888.327-1.216.699-.652-.684-1.896.758-1.942 1.414-.104 1.462.159 4.566 2.317 4.056 1.11-.263 1.884-1.507 1.926-2.597.012-.335-.025-.66-.031-.995zM71.772 165.617c-.335-.25-.805-.13-1.121.087-.519.356-1.155 1.126-.846 1.807-.111-.245.022.06.056.158.006.02.025.04.037.062.015.323.156.522.528.542.104.004.208.01.313.017.434.021.877-.474 1.065-.807.156-.275.237-.597.123-.878.128-.34.159-.758-.155-.988zM114.955 192.632c-.606-1.615-2.642-4.655-4.638-4.299-1.149.206-1.926.993-2.452 2.014-.526-.014-1.067.23-1.605.896-1.715 2.118-1.377 7.017-.466 9.309.943 2.369 2.266 4.916 4.301 6.521 2.251 1.775 4.558-.644 5.513-2.575 1.689-3.416.604-8.513-.653-11.866zM158.675 199.973a.319.319 0 0 0-.209-.175c.029-.977-.239-1.904-1.243-2.25-.374-.127-.751.029-1.08.289-.337-.184-1.006.038-1.351.605-1.28 2.115-2.292 5.397-.168 7.305.184.166.492.141.702.059 1.553-.607 2.34-2.611 2.787-4.081.061-.2.122-.422.176-.657.052-.064.101-.132.158-.194.193-.215.371-.617.228-.901zm-3.303 1.11c.157.137.38.212.689.192-.031.272-.095.541-.129.721a5.55 5.55 0 0 1-.289.941c-.312-.534-.364-1.19-.271-1.854zM178.905 171.48a.542.542 0 0 0-.507-.316c.006-.101.013-.203.016-.304.068-.322.204-.64.217-.968.01-.235-.066-.423-.211-.517a.46.46 0 0 0-.296-.247c-.347-.09-.691.13-.943.338-.901.743-1.195 2.043-1.16 3.161.013.378.129.829.443 1.072.568.439 1.376-.063 1.802-.465.42-.394.944-1.147.639-1.754zM195.817 211.823a1.84 1.84 0 0 0-.801-.02c-2.496-3.933-5.639 3.789-6.012 6.166-.414 2.626-.674 5.899 1.183 8.02 1.49 1.702 4.211-.921 4.953-2.203 1.401-2.419 5.639-10.668.677-11.963zm-2.76 1.347c-.71.84-1.27 1.888-1.585 2.658.328-1.469.841-2.698 1.585-2.658zM216.739 191.819c-.368-.316-.946.017-1.236.272-.271.24-.573.654-.656 1.069-.05.182-.07.365-.048.55v.002a1.203 1.203 0 0 0-.165.523.579.579 0 0 0 .136.44.433.433 0 0 0 .205.15c.188.07.396.022.591-.082.245.044.536-.036.778-.183.604-.369 1.027-1.04 1.01-1.753-.012-.455-.299-.716-.615-.988zM245.239 187.64c.118-1.187.017-2.385-.401-3.531-.784-2.146-2.841-1.162-3.855.187-1.251 1.665-2.034 4.064-2.08 6.123-.038 1.632.434 3.599 2.052 3.386 1.036.106 1.991-.729 2.682-1.682 1.022-1.142 1.636-2.64 1.643-4.18a1.109 1.109 0 0 0-.041-.303zm-2.785-.91c.175.419.187.934.217 1.382.015.214-.031.743-.126 1.301-.143.309-.295.611-.498.845l-.134-.754c-.097-.563-.03-1.126.049-1.685.061-.426.214-.882.393-1.321.035.077.07.154.099.232z" style="opacity:.5;fill:#8d4500"/></svg>