<?xml version="1.0" encoding="utf-8"?>
<!-- Generator: Adobe Illustrator 27.5.0, SVG Export Plug-In . SVG Version: 6.00 Build 0)  -->
<svg version="1.1" id="Layer_1" xmlns="http://www.w3.org/2000/svg" xmlns:xlink="http://www.w3.org/1999/xlink" x="0px" y="0px"
	 viewBox="0 0 270.907 246.846" style="enable-background:new 0 0 270.907 246.846;" xml:space="preserve">
<g>
	<path style="fill:#424E32;" d="M131.835,67.087c-3.066-1.134-6.689-0.936-9.503-2.655c-1.933-1.182-0.292-4.452,0.045-6.254
		c0.279-1.494,0.212-3.051,0.097-4.555c-0.458-5.924-7.684-10.504-13.114-10.858c-7.249-0.474-13.73,4.464-20.918,3.574
		c-8.18-1.015-2.843-10.645-1.233-15.02c1.497-4.071,2.848-8.621,2.04-12.984c-0.862-4.649-5.469-7.203-9.938-6.927
		c-5.5,0.343-10.295,5.499-13.841,9.184c-5.085,5.28-9.288,11.421-12.667,17.914c-0.701,1.349,0.839,1.384,1.415,0.369
		c3.685-6.505,8.23-12.463,13.593-17.676c4.378-4.255,10.256-8.931,16.116-4.381c3.782,2.935,2.108,8.965,0.901,12.727
		c-1.335,4.16-3.668,8.135-4.291,12.488c-0.801,5.617,4.028,8.271,8.945,8.081c7.25-0.281,13.366-5.302,20.837-3.92
		c3.377,0.624,6.549,2.732,8.661,5.394c2.636,3.319,1.36,7.275,0.655,10.97c-1.064,5.559,8.353,5.559,11.661,5.708
		C131.735,68.286,132.41,67.301,131.835,67.087z"/>
	<path style="fill:#424E32;" d="M257.946,87.192c-2.577-0.985-5.096-1.96-7.37-3.563c-3.168-2.231-3.69-5.447-3.969-9.058
		c-0.227-2.942-0.162-5.937-1.357-8.683c-1.029-2.362-4.412-1.968-6.414-1.625c-3.21,0.55-6.378,2.11-9.447,3.163
		c-1.779,0.613-3.732,0.927-5.564,1.361c-2.184,0.521-4.793,1.321-7.07,1.118c-3.494-0.315-5.609-4.938-7-7.633
		c-1.629-3.152-2.867-6.48-4.266-9.735c-2.259-5.252-4.807-11.382-10.304-13.928c-2.794-1.295-5.033-2.565-8.186-2.858
		c-2.563-0.24-5.092,0.234-7.504,1.076c-5.29,1.845-9.228,6.552-11.591,11.451c-1.332,2.763-1.961,5.749-3.13,8.562
		c-1.224,2.945-1.979,5.842-1.711,9.044c0.139,1.647,2.591-0.358,2.518-1.541c-0.22-3.593,1.377-6.292,2.408-9.579
		c0.927-2.953,2.036-5.811,3.647-8.465c3.351-5.517,9.723-7.999,15.915-6.646c13.221,2.891,14.588,18.313,20.721,28.014
		c3.022,4.776,6.335,5.975,11.737,4.643c3.372-0.832,6.829-1.653,10.068-2.906c3.313-1.28,6.649-3.056,10.2-3.501
		c6.289-0.788,4.282,11.617,5.898,15.46c1.776,4.226,7.033,6.203,11.195,6.849C257.802,88.28,258.489,87.4,257.946,87.192z"/>
	<g>
		<g>
			<path style="fill:#44832D;" d="M207.697,64.657c-2.386,1.803-5.272,2.896-8.047,3.962c-3.969,1.522-6.718,0.03-10.249-1.751
				c-5.071-2.56-10.34-4.793-15.718-6.618c-2.306-0.783-4.662-1.846-7.092-2.088c-2.087-0.209-4.674,0.828-6.616,1.446
				c-1.886,0.603-3.689,1.409-5.415,2.358l0.01-0.027c2.09-6.49,3.143-12.813,2.354-19.608c-0.781-6.722-2.604-13.311-4.124-19.893
				c-1.313-5.689-3.184-11.687-7.071-16.2c-0.527-3.175-6.191-2.498-8.747-2.427c-2.5,0.07-5.531,1.354-7.819,2.268
				c-0.688,0.277-1.362,0.597-2.022,0.945c-2.248,0.784-4.398,1.783-6.323,3.048c-4.104,2.7-5.265,9.022-6.689,13.35
				c-0.948,2.881-1.711,5.807-2.2,8.8c-0.265,1.617-0.903,5.146,0.387,6.501c0.439,0.461,0.945,0.639,1.478,0.651
				c2.506,2.159,5.805,3.779,8.561,5.456c3.491,2.126,6.803,4.475,9.111,7.91c1.957,2.909,2.977,6.028,3.359,9.233
				c-2.112-3.29-5.52-5.893-8.998-7.544c-4.048-1.922-7.195-1.611-11.126,0.35c-4.739,2.363-9.394,5.223-13.881,8.036
				c-2.233,1.398-6.582,4.15-9.142,2.169c-2.121-1.641-3.931-5.755-4.2-8.302c-0.056-0.53-0.731,0.056-0.805,0.289
				c-1.47,4.578,0.288,8.876,2.17,13.085c2.104,4.701,5.565,7.664,10.749,8.123c5.175,0.459,10.903-2.117,15.447-4.25
				c5.138-2.409,14.038-9.246,19.506-4.111c0.032,0.031,0.068,0.045,0.106,0.05c-0.392,2.788-1.071,5.568-1.859,8.265
				c-0.367,1.034-0.542,2.086-0.096,3.175c0.629,1.529,4.617,1.775,5.942,1.861c2.456,0.164,4.878-0.555,6.912-1.903
				c1.274-0.846,1.732-2.449,2.157-3.891c0.376-0.586,0.737-1.18,1.085-1.781c1.538-1.217,3.2-2.064,5.226-2.658
				c3.883-1.138,7.52-0.179,11.333,0.738c5.641,1.357,11.419,2.271,17.209,2.672c5.663,0.393,12.341,1.165,17.774-0.824
				c3.886-1.423,6.012-7.224,7.961-10.38C208.634,64.594,208.145,64.319,207.697,64.657z"/>
			<path style="fill:#66B341;" d="M115.043,23.344c1.477-4.636,2.674-10.573,7.136-13.182c0.02-0.011,0.04-0.021,0.059-0.033
				c-0.171,0.119-0.344,0.24-0.515,0.358c-0.261,0.182-0.38,0.834,0.07,0.564c1.695-1.017,3.366-2.075,5.091-3.04
				c0.253-0.144,0.509-0.274,0.767-0.401c3.177-1.179,6.558-1.989,9.715-2.422c0.145-0.019,0.33-0.366,0.122-0.346
				c-1.046,0.1-2.11,0.236-3.181,0.408c2.073-0.578,4.013-0.495,6.192-0.443c1.394,0.032,3.046,0.108,3.987,1.337
				c0.84,1.096-0.029,2.984-0.41,4.064c-1.497,4.235-4.503,8.289-7.393,11.668c-3.221,3.766-6.785,7.057-10.77,10.001
				c-3.338,2.467-7.061,5.03-10.983,6.438C110.327,39.966,114.489,25.085,115.043,23.344z"/>
			<path style="fill:#66B341;" d="M202.822,72.416c-2.521,3.365-7.614,3.039-11.387,2.968c-6.228-0.118-12.376-0.681-18.539-1.559
				c-5.893-0.84-15.005-3.907-21.245-1.252c-1.521,1.147-3.522,2.157-4.312,3.972c-0.077,0.179-0.143,0.361-0.206,0.546
				c0.038-0.036,0.075-0.071,0.111-0.108c-0.064,0.163-0.126,0.326-0.186,0.491c-0.03,0.052-0.061,0.101-0.091,0.15
				c-0.241,0.824-0.464,1.649-1.042,2.285c-0.289,0.396-0.643,0.759-1.13,1.059c-1.461,0.902-3.292,1.082-4.968,1.1
				c-1.511,0.014-2.925-0.253-4.358-0.693c-2.747-0.844-1.94-3.828-1.299-5.742c0.03-0.089,0.016-0.133-0.017-0.155
				c0.53-1.916,0.95-3.833,1.23-5.749c-0.086-0.142-0.173-0.28-0.267-0.416c-0.11-0.161-0.224-0.32-0.335-0.48
				c-0.002,0.027-0.004,0.055-0.007,0.082c-2.505-2.602-7.165-1.762-10.164-0.676c-5.145,1.86-9.698,5.108-14.868,7.001
				c-5.527,2.026-11.971,3.323-16.749-0.964c-1.937-1.737-3.177-4.467-4.144-6.826c-1.161-2.831-2.195-5.499-1.88-8.397
				c0.691,2.818,2.374,6.602,4.623,7.43c3.701,1.364,8.248-2.104,11.214-3.918c2.243-1.37,4.57-2.595,6.832-3.934
				c3.036-1.797,6.155-3.968,9.696-4.536c5.108-0.821,11.958,4.364,15.035,8.552c0.477,0.428,0.938,0.876,1.366,1.354
				c-0.105-3.358-0.8-6.701-2.357-10.007c-1.762-3.74-4.79-6.332-8.181-8.574c-3.292-2.179-7.243-3.82-10.476-6.165
				c0.802-0.213,1.61-0.651,2.299-0.988c2.67-1.303,5.189-3.021,7.627-4.713c4.663-3.235,8.67-7.137,12.412-11.377
				c3.537-4.008,7.14-9.03,8.539-14.247c0.077-0.283,0.122-0.547,0.149-0.793c3.312,4.587,4.936,10.467,6.192,15.828
				c1.407,6.004,2.955,12.024,3.867,18.128c1.061,7.1,0.138,14.364-2.008,21.299c-2.037,1.188-3.958,2.577-5.756,4.099
				c-0.036,0.03-0.059,0.066-0.078,0.104c2.835-1.928,5.941-3.86,9.167-4.915c2.496-1.021,5.099-1.789,7.785-2.267
				c2.644-0.472,5.656,1.203,8.114,1.996c3.116,1.005,6.153,2.259,9.156,3.562c4.275,1.853,9.202,5.559,13.988,5.657
				c2.065,0.043,4.352-1.285,6.204-2.056c1.454-0.603,2.874-1.293,4.204-2.127C205.395,68.477,204.236,70.526,202.822,72.416z"/>
			<path style="fill:#44832D;" d="M207.697,64.657c-2.386,1.803-5.272,2.896-8.047,3.962c-0.568,0.218-1.108,0.367-1.633,0.47
				c-3.913,1.859-8.214,2.864-12.627,2.728c-6.752-0.208-13.051-3.183-19.749-3.88c-3.629-0.378-7.38-0.292-10.917,0.675
				c-1.737,0.477-3.381,1.063-4.903,2.035c-1.119,0.717-2.199,1.345-3.528,1.542c-0.329,0.049-0.513-0.274-0.311-0.534
				c3.293-4.259,7.618-8.046,12.559-10.252c2.592-1.156,5.396-2.479,8.267-3.21c-0.072-0.009-0.144-0.023-0.217-0.03
				c-2.087-0.209-4.674,0.828-6.616,1.446c-1.886,0.603-3.689,1.409-5.415,2.358l0.01-0.027c2.09-6.49,3.143-12.813,2.354-19.608
				c-0.781-6.722-2.604-13.311-4.124-19.893c-1.313-5.689-3.184-11.687-7.071-16.2c-0.527-3.175-6.191-2.498-8.747-2.427
				c-2.5,0.07-5.531,1.354-7.819,2.268c-0.688,0.277-1.362,0.597-2.022,0.945c-2.248,0.784-4.398,1.783-6.323,3.048
				c-0.805,0.53-1.495,1.204-2.098,1.97c1.64-1.011,3.398-1.845,5.167-2.566c3.423-1.395,7.719-2.97,11.485-2.293
				c3.96,0.712,3.057,4.306,1.815,7.134c-3.297,7.511-9.187,14.569-15.467,19.803c-2.398,1.999-5.259,3.995-8.452,4.356
				c-0.153,0.018-0.308,0.03-0.465,0.041c5.107,0.344,9.975-1.436,14.16-4.626c2.456-1.869,4.675-4.036,6.715-6.349
				c0.925-1.047,1.827-2.113,2.701-3.203c0.738-0.92,1.434-2.094,2.423-2.764c1.191-0.808,2.144-0.258,2.618,1.025
				c0.872,2.36,1.196,5.049,1.682,7.51c1.314,6.665,2.149,13.512,1.179,20.279c-0.036,0.242-0.385,0.302-0.535,0.142
				c-1.843-1.973-2.6-4.613-3.745-6.999c-0.211-0.44-0.439-0.87-0.673-1.3c1.312,3.608,2.012,7.464,1.436,11.034
				c-0.037,0.229-0.39,0.317-0.534,0.141c-1.854-2.265-3.375-4.789-5.263-7.027c-0.92-1.088-1.992-1.985-3.071-2.877
				c1.305,1.787,2.478,3.678,3.449,5.647c1.393,2.833,2.634,6.026,2.063,9.231c-0.042,0.231-0.386,0.315-0.535,0.141
				c-1.626-1.888-3.384-3.647-5.161-5.39c1.79,2.798,2.748,5.78,3.113,8.842c-1.467-2.285-3.564-4.229-5.871-5.762
				c1.832,2.293,3.257,4.895,3.977,7.752c0.074,0.29-0.318,0.569-0.533,0.311c-1.951-2.341-4.446-4.432-7.544-4.945
				c-2.639-0.438-5.327,0.099-7.731,1.24c-2.585,1.229-4.933,2.906-7.051,4.824c-2.025,1.833-4.093,3.71-6.63,4.817
				c-4.773,2.085-10.169,0.908-13.215-3.54c-1.431-2.09-2.226-4.498-2.194-7.042c0.002-0.146,0.001-0.335,0.004-0.545
				c-0.287-0.863-0.484-1.694-0.559-2.402c-0.056-0.53-0.731,0.056-0.805,0.289c-1.47,4.578,0.288,8.876,2.17,13.085
				c2.104,4.701,5.565,7.664,10.749,8.123c5.175,0.459,10.903-2.117,15.447-4.25c5.138-2.409,14.038-9.246,19.506-4.111
				c0.032,0.031,0.068,0.045,0.106,0.05c-0.08,0.569-0.18,1.138-0.282,1.706c0.871-0.928,1.907-1.691,3.047-2.207
				c0.234-0.107,0.454,0.022,0.482,0.275c0.46,4.223-1.157,9.979,2.143,13.359c0.046,0.049,0.068,0.1,0.081,0.151
				c1.935-0.146,3.806-0.811,5.429-1.888c1.274-0.846,1.732-2.449,2.157-3.891c0.376-0.586,0.737-1.18,1.085-1.781
				c1.538-1.217,3.2-2.064,5.226-2.658c3.883-1.138,7.52-0.179,11.333,0.738c5.641,1.357,11.419,2.271,17.209,2.672
				c5.663,0.393,12.341,1.165,17.774-0.824c3.886-1.423,6.012-7.224,7.961-10.38C208.634,64.594,208.145,64.319,207.697,64.657z"/>
			<path style="opacity:0.4;fill:#44832D;" d="M141.008,7.846c-0.208,5.351-2.126,10.418-4.497,15.179
				c2.546-3.307,4.209-7.257,7.074-10.345c0.153-0.166,0.382-0.093,0.502,0.063c5.822,7.618,8.045,17.485,8.326,26.919
				c0.281,9.402-1.122,19-4.469,27.814c2.578-1.535,5.077-3.461,7.095-5.759c-0.16,0.084-0.322,0.162-0.48,0.249l0.01-0.027
				c2.09-6.49,3.143-12.813,2.354-19.608c-0.781-6.722-2.604-13.311-4.124-19.893c-1.313-5.689-3.184-11.687-7.071-16.2
				c-0.36-2.17-3.119-2.54-5.646-2.535C140.947,4.809,141.063,6.432,141.008,7.846z"/>
		</g>
		<path style="opacity:0.4;fill:#44832D;" d="M135.324,70.692c-1.136-1.772-2.993-3.171-4.794-4.095
			c-2.658-1.367-5.449-1.619-8.354-0.902c-2.594,0.641-5.198,1.636-7.502,2.999c-1.954,1.156-3.717,2.571-5.586,3.85
			c-3.705,2.531-7.724,3.773-12.234,3.175c-1.841-0.244-3.67-0.708-5.343-1.469c2.021,2.243,4.678,3.628,8.08,3.93
			c5.175,0.459,10.903-2.117,15.447-4.25c5.138-2.409,14.038-9.246,19.506-4.111c0.032,0.031,0.068,0.045,0.106,0.05
			c-0.08,0.569-0.18,1.138-0.282,1.706C134.667,71.258,134.99,70.968,135.324,70.692z"/>
	</g>
	<g>
		<g>
			<path style="fill:#8D4500;" d="M265.976,142.289c-2.575-19.94-10.977-45.001-30.252-49.8c-0.262-0.233-0.522-0.467-0.79-0.693
				c-10.676-9.055-23.869-13.139-37.126-13.388c-0.971-0.692-1.952-1.366-2.963-1.998c-11.861-7.404-24.864-9.378-37.987-7.87
				c-0.888-0.665-1.795-1.293-2.728-1.871c-6.107-3.785-12.102-4.553-18.676-3.932c-6.576-0.621-12.57,0.146-18.677,3.932
				c-0.933,0.578-1.84,1.206-2.728,1.871c-13.124-1.508-26.126,0.466-37.987,7.87c-1.01,0.632-1.992,1.306-2.962,1.998
				c-13.258,0.249-26.45,4.333-37.127,13.388c-0.268,0.227-0.528,0.46-0.79,0.693c-19.274,4.799-27.675,29.859-30.251,49.8
				C3.3,154.909,3.837,167.72,7.667,179.8c2.392,7.543,6.976,16.604,13.515,21.354c5.678,11.221,14.212,20.559,24.754,26.103
				c7.712,4.054,15.802,5.996,24.015,6.053c5.194,2.32,10.719,4.036,15.938,5.919c7.538,2.72,15.435,4.369,23.377,3.804
				c4.271-0.305,8.473-1.304,12.59-2.654c4.428,1.06,9.015,1.372,13.597,1.316c4.582,0.056,9.169-0.257,13.595-1.316
				c4.12,1.351,8.32,2.35,12.592,2.654c7.943,0.565,15.84-1.084,23.376-3.804c5.221-1.883,10.746-3.599,15.94-5.919
				c8.211-0.057,16.301-1.999,24.014-6.053c10.543-5.544,19.077-14.882,24.755-26.103c6.538-4.751,11.122-13.811,13.513-21.354
				C267.068,167.72,267.608,154.909,265.976,142.289z"/>
			<path style="fill:#F2A418;" d="M5.854,146.691c1.475-20.449,9.041-46.47,28.021-53c-11.553,11.054-16.966,27.369-19.49,43.798
				c-2.765,17.99-2.999,36.737,2.776,54.058c0.509,1.524,1.079,3.02,1.686,4.497C7.496,184.101,4.629,163.654,5.854,146.691z"/>
			<path style="fill:#F2A418;" d="M56.463,229.306c-7.889-2.353-15.252-6.682-21.451-12.576c-3.991-3.793-7.354-8.193-10.153-12.997
				c-1.649-2.335-3.141-4.818-3.964-7.621c-0.344-0.837-0.653-1.691-0.917-2.56c-3.086-7.97-4.918-16.586-5.625-25.211
				c-0.797-9.725-0.132-19.554,1.229-29.178c1.483-10.471,3.902-20.683,8.41-30.08c2.696-5.621,6.313-10.376,10.538-14.335
				c1.665-1.995,3.768-3.511,5.958-4.794c8.27-5.716,18.019-9.028,27.639-10.176c1.179-0.14,2.362-0.245,3.543-0.323
				C60.868,87.666,52.7,99.626,47.085,112.71c-6.52,15.188-9.363,32.126-9.117,48.896c0.254,17.413,4.044,36.206,11.583,51.535
				c3.519,7.153,8.343,13.508,14.886,17.357c0.464,0.273,0.934,0.536,1.409,0.795C62.672,230.923,59.523,230.218,56.463,229.306z"/>
			<path style="fill:#F2A418;" d="M106.644,241.374c-8.405,0.159-16.538-2.627-24.421-5.63c-0.021-0.001-0.041,0.006-0.064,0.001
				c-1.746-0.344-3.385-0.978-5.04-1.674c-1.592-0.67-3.26-1.141-4.829-1.867c-1.105-0.514-2.171-1.1-3.197-1.757
				c-4.39-2.103-8.473-4.757-11.986-8.919c-5.873-6.96-9.465-16.253-12.096-25.212c-10.17-34.631-6.932-75.932,15.32-104.086
				c3.468-4.389,7.414-8.272,11.729-11.559c0.188-0.191,0.382-0.377,0.591-0.551c0.854-0.707,1.742-1.263,2.648-1.761
				c3.4-2.263,6.992-4.17,10.733-5.67c8.611-3.457,17.869-4.132,26.984-3.354c-5.087,4.064-9.414,9.423-13.169,14.891
				c-9.436,13.736-14.668,30.574-16.928,47.541c-2.647,19.877-1.13,40.244,3.121,59.704c3.682,16.855,10.495,34.439,24.302,43.892
				c2.711,1.855,5.567,3.204,8.518,4.168C114.872,240.602,110.812,241.297,106.644,241.374z"/>
			<path style="fill:#F2A418;" d="M147.548,239.37c-0.319,0.067-0.64,0.123-0.962,0.155c0.03,0.014,0.063,0.024,0.095,0.037
				c-3.681,0.814-7.449,1.158-11.228,1.275c-3.782-0.117-7.547-0.462-11.228-1.275c0.031-0.013,0.063-0.023,0.096-0.037
				c-0.323-0.032-0.644-0.088-0.962-0.155c-1.417-0.232-2.828-0.513-4.103-1.243c-1.221-0.436-2.431-0.928-3.623-1.508
				c-7.919-3.854-13.994-11.221-18.504-19.238c-9.467-16.828-12.854-38.623-13.823-58.153c-0.961-19.294,1.437-39.136,8.375-56.927
				c4.675-11.99,12.526-25.298,22.986-32.809c0.014,0.002,0.028,0.004,0.043,0.006c0.619-0.484,1.253-0.945,1.902-1.393
				c1.227-0.844,2.485-1.638,3.866-2.013c3.059-1.41,6.297-2.316,9.71-2.562c0.539-0.039,1.078-0.053,1.618-0.065
				c0.073,0.145,0.216,0.292,0.333,0.282c1.102-0.091,2.207-0.166,3.314-0.224c1.107,0.058,2.212,0.133,3.314,0.224
				c0.116,0.01,0.259-0.137,0.331-0.282c0.54,0.013,1.08,0.026,1.619,0.065c3.412,0.246,6.649,1.152,9.708,2.562
				c1.382,0.375,2.64,1.169,3.866,2.013c0.649,0.447,1.284,0.908,1.903,1.393c0.014-0.002,0.028-0.004,0.042-0.006
				c10.461,7.511,18.312,20.818,22.987,32.809c6.938,17.791,9.337,37.633,8.376,56.927c-0.971,19.53-4.356,41.325-13.824,58.153
				c-4.511,8.018-10.585,15.385-18.504,19.238c-1.191,0.58-2.401,1.072-3.623,1.508C150.376,238.857,148.963,239.138,147.548,239.37
				z"/>
			<path style="fill:#F2A418;" d="M198.617,232.204c-1.57,0.727-3.237,1.197-4.828,1.867c-1.655,0.696-3.295,1.33-5.041,1.674
				c-0.023,0.005-0.043-0.002-0.064-0.001c-7.883,3.003-16.016,5.789-24.422,5.63c-4.168-0.077-8.228-0.772-12.215-1.843
				c2.95-0.964,5.807-2.313,8.517-4.168c13.808-9.452,20.62-27.037,24.301-43.892c4.252-19.46,5.769-39.827,3.121-59.704
				c-2.259-16.967-7.491-33.805-16.926-47.541c-3.757-5.468-8.084-10.826-13.169-14.891c9.114-0.777,18.373-0.103,26.983,3.354
				c3.742,1.5,7.333,3.407,10.733,5.67c0.906,0.498,1.794,1.054,2.649,1.761c0.209,0.174,0.402,0.359,0.59,0.551
				c4.315,3.286,8.262,7.17,11.729,11.559c22.253,28.154,25.492,69.455,15.321,104.086c-2.631,8.959-6.224,18.252-12.096,25.212
				c-3.512,4.162-7.596,6.816-11.986,8.919C200.788,231.105,199.723,231.69,198.617,232.204z"/>
			<path style="fill:#F2A418;" d="M250.012,196.111c-0.824,2.803-2.317,5.286-3.964,7.621c-2.798,4.804-6.163,9.204-10.154,12.997
				c-6.197,5.894-13.562,10.224-21.451,12.576c-3.059,0.912-6.209,1.617-9.38,1.987c0.473-0.259,0.943-0.521,1.407-0.795
				c6.543-3.85,11.368-10.204,14.886-17.357c7.538-15.329,11.328-34.122,11.583-51.535c0.247-16.77-2.597-33.708-9.117-48.896
				c-5.616-13.084-13.784-25.044-24.586-33.255c1.182,0.078,2.363,0.184,3.543,0.323c9.62,1.147,19.369,4.46,27.64,10.176
				c2.19,1.283,4.293,2.799,5.958,4.794c4.224,3.959,7.841,8.714,10.538,14.335c4.508,9.397,6.925,19.609,8.409,30.08
				c1.362,9.624,2.028,19.453,1.23,29.178c-0.707,8.625-2.54,17.241-5.625,25.211C250.663,194.42,250.355,195.274,250.012,196.111z"
				/>
			<path style="fill:#F2A418;" d="M252.06,196.044c0.604-1.477,1.176-2.973,1.685-4.497c5.774-17.32,5.541-36.067,2.777-54.058
				c-2.526-16.429-7.938-32.744-19.492-43.798c18.98,6.53,26.546,32.551,28.022,53C266.275,163.654,263.411,184.101,252.06,196.044z
				"/>
		</g>
		<path style="opacity:0.4;fill:#D47D2C;" d="M265.976,142.289c-2.575-19.94-10.977-45.001-30.252-49.8
			c-0.262-0.233-0.522-0.467-0.79-0.693c-10.676-9.055-23.869-13.139-37.126-13.388c-0.971-0.692-1.952-1.366-2.963-1.998
			c-11.861-7.404-24.864-9.378-37.987-7.87c-0.888-0.665-1.795-1.293-2.728-1.871c-6.107-3.785-12.102-4.553-18.676-3.932
			c-6.576-0.621-12.57,0.146-18.677,3.932c-0.933,0.578-1.84,1.206-2.728,1.871c-13.124-1.508-26.126,0.466-37.987,7.87
			c-1.01,0.632-1.992,1.306-2.962,1.998c-1.634,0.031-3.267,0.121-4.896,0.271c-5.999,8.256-11.833,16.716-16.191,25.941
			c6.447-8.278,12.478-17.246,21.211-23.271c4.883-3.37,9.959-5.306,15.71-6.479c2.762-0.563,5.563-1.053,8.379-1.241
			c1.706-0.113,4.163-0.405,5.711,0.558c1.083,0.677,0.806,1.782,0.46,2.846c-0.629,1.936-1.518,3.793-2.421,5.62
			c3.834-4.174,8.491-7.666,13.976-9.308c2.355-0.705,5.139-1.01,6.879,1.081c1.999,2.405,1.275,6.389,0.841,9.178
			c-0.712,4.575-1.971,9.03-3.052,13.524c-1.036,4.315-1.663,8.646-2.132,13.056c-0.861,8.092-1.544,16.674,0.449,24.663
			c2.253-12.062,3.511-24.323,6.491-36.244c1.275-5.102,2.577-10.24,4.135-15.264c1.378-4.444,2.996-8.955,5.773-12.738
			c0.142-0.193,0.415-0.216,0.552,0c2.898,4.565,2.445,10.095,3.229,15.264c0.703-4.415,1.087-8.876,1.94-13.269
			c0.052-0.271,0.462-0.314,0.585-0.077c11.377,22.063,14.874,47.455,13.564,72.019c-0.631,11.81-2.258,24.524-8.482,34.839
			c-2.833,4.692-6.663,8.824-11.508,11.476c-5.175,2.836-11.11,4.021-16.979,4.129c-9.045,0.162-17.72-2.971-23.43-10.211
			c-5.682-7.2-8.092-16.48-9.134-25.442c-1.214-10.439-0.707-21.042,0.674-31.437c0.637-4.794,1.466-9.586,2.533-14.322
			c-1.14,3.543-2.205,7.112-3.138,10.717c-2.447,9.453-4.129,19.106-4.775,28.857c-0.246,3.685-0.439,7.376-0.208,11.066
			c0.182,2.886,0.428,5.767,0.513,8.656c0.157,5.332,0.205,11.897-3.087,16.428c-3.259,4.483-9.891,5.752-15.014,4.191
			c-5.769-1.754-10.102-6.464-13.039-11.561c-3.549-6.155-5.109-12.816-6.051-19.805c-1.319-9.784-1.232-19.796,0.023-29.581
			c1.185-9.245,5.381-17.898,6.089-27.21c-4.229,5.233-7.137,11.482-9.422,17.768c-2.376,6.536-4.301,13.301-5.751,20.104
			c-3.627,17.005-3.608,34.652,0.851,51.502c0.077,0.288-0.323,0.569-0.535,0.309c-1.129-1.388-2.231-2.799-3.275-4.253
			c-10.006-13.936-15.065-30.547-13.883-47.717c1.148-16.681,7.17-32.564,14.867-47.275c-15.347,15.643-20.802,38.8-22.415,60.023
			c-0.022,0.28-0.457,0.479-0.596,0.161c-2.46-5.688-3.418-12.009-3.489-18.332c-0.269,1.578-0.506,3.141-0.703,4.671
			C3.3,154.909,3.837,167.72,7.667,179.8c2.392,7.543,6.976,16.604,13.515,21.354c5.678,11.221,14.212,20.559,24.754,26.103
			c7.712,4.054,15.802,5.996,24.015,6.053c5.194,2.32,10.719,4.036,15.938,5.919c7.538,2.72,15.435,4.369,23.377,3.804
			c4.271-0.305,8.473-1.304,12.59-2.654c4.428,1.06,9.015,1.372,13.597,1.316c4.582,0.056,9.169-0.257,13.595-1.316
			c4.12,1.351,8.32,2.35,12.592,2.654c7.943,0.565,15.84-1.084,23.376-3.804c5.221-1.883,10.746-3.599,15.94-5.919
			c8.211-0.057,16.301-1.999,24.014-6.053c10.543-5.544,19.077-14.882,24.755-26.103c6.538-4.751,11.122-13.811,13.513-21.354
			C267.068,167.72,267.608,154.909,265.976,142.289z M221.837,152.186c-0.284,13.145-3.45,27.189-13.072,36.751
			c-0.201,0.199-0.539,0.052-0.545-0.227c-0.286-13.234-1.428-26.323-3.689-39.263c-0.31,3.888-0.936,7.743-2.076,11.538
			c-0.105,0.349-0.619,0.279-0.627-0.084c-0.724-30.336-13.585-59.38-31.283-83.587c-0.158-0.216,0.063-0.457,0.276-0.48
			c10.091-1.068,19.298,4.378,26.279,11.207c7.182,7.028,12.85,15.611,16.976,24.751
			C219.579,124.98,222.126,138.843,221.837,152.186z M241.739,169.056c-0.192,0.259-0.565,0.167-0.595-0.162
			c-0.713-7.846-1.399-15.717-2.87-23.466c-1.202-6.338-2.91-12.611-4.56-18.849c-0.293-1.107-0.594-2.226-0.905-3.346
			c-4.384-11.646-9.988-22.813-17.783-32.428c-0.178-0.22-0.021-0.661,0.312-0.533c5.104,1.939,9.82,4.812,13.954,8.379
			C248.575,115.282,257.987,147.249,241.739,169.056z"/>
		<path style="opacity:0.4;fill:#D47D2C;" d="M265.976,142.289c-0.783-6.061-2.108-12.591-4.109-18.883
			c0.502,5.794,1.006,11.594,1.018,17.411c0.013,6.239-0.374,12.673-2.574,18.572c-0.111,0.294-0.516,0.314-0.618,0
			c-2.54-7.898-3.555-16.186-4.898-24.372c0.124,5.219-0.102,10.441-0.464,15.724c-0.528,7.7-1.554,15.498-3.275,23.023
			c-1.675,7.323-4.083,14.619-8.359,20.862c-0.172,0.252-0.599,0.174-0.596-0.162c0.058-7.215,2.152-14.379,1.488-21.591
			c-3.079,12.526-4.589,26.285-13.088,36.521c-0.218,0.263-0.602-0.021-0.534-0.311c3.759-16.044,6.343-32.536,5.781-49.06
			c-0.421-12.431-2.672-24.673-7.041-36.222c6.308,23.803-3.301,49.88-9.311,72.985c-0.09,0.344-0.65,0.28-0.629-0.084
			c0.614-10.393,1.91-20.79,2.455-31.2c-1.357,5.977-3.241,11.851-5.775,17.555c-3.088,6.951-6.335,13.887-10.591,20.212
			c-3.971,5.899-8.817,11.654-15.335,14.805c-0.201,0.099-0.497-0.015-0.48-0.275c0.632-9.728,4.189-19.016,4.725-28.727
			c-2.357,10.653-4.856,21.343-10.522,30.806c-0.194,0.323-0.653,0.102-0.585-0.246c1.452-7.407,3.874-14.573,5.468-21.947
			c1.581-7.323,2.088-14.958,2.467-22.431c0.497-9.777,0.427-19.554-0.273-29.32c-0.357-5.01-0.87-10.018-1.772-14.959
			c-0.675-3.689-1.692-7.252-2.608-10.878c-1.206-4.767-2.505-9.518-4.071-14.179c-0.019-0.057-0.039-0.113-0.059-0.17
			c0.208,1.771,0.383,3.546,0.512,5.325c0.71,9.692,0.38,19.423-1.154,29.023c-1.563,9.795-2.88,19.678-5.406,29.285
			c-2.018,7.677-4.269,15.443-6.969,22.908c-2.48,6.855-5.571,13.843-10.854,19.021c-0.234,0.23-0.604-0.002-0.533-0.31
			c3.137-13.699,6.53-27.295,8.425-41.238c0.256-1.883,0.502-3.766,0.74-5.653c-1.913,7.556-4.357,14.975-7.222,22.163
			c-2.691,6.756-5.677,13.54-9.492,19.746c-3.363,5.468-7.725,11.35-14.114,13.366c-0.132,0.042-0.294-0.024-0.36-0.148
			c-4.234-7.772-2.023-17.219-3.129-25.754c-0.264,3.136-0.581,6.269-1.108,9.371c-0.786,4.615-1.878,9.745-4.822,13.526
			c-2.714,3.482-6.766,4.484-10.9,2.991c-13.708-4.947-18.906-20.194-24.063-32.605c0.801,8.625,4.363,16.7,5.93,25.192
			c0.063,0.341-0.399,0.581-0.584,0.246c-9.515-17.148-12.002-36.43-15.339-55.437c0.181,8.251,0.855,16.478,1.56,24.702
			c0.366,4.271,0.62,8.559,1.026,12.827c0.273,2.888,0.816,5.743,1.272,8.604c0.539,3.37,1.06,6.768,1.193,10.183
			c0.111,2.885,0.1,6.064-1.038,8.775c-1.759,4.188-5.621,5.459-9.809,4.104c-5.159-1.672-9.677-5.298-13.628-8.908
			c-3.655-3.34-6.99-6.937-9.725-11.07c-13.616-20.57-17.552-46.513-14.712-71.121c-2.063,9.439-2.606,19.246-2.347,28.894
			c0.224,8.355,0.819,16.76,2.194,25.011c0.691,4.152,1.56,8.275,2.719,12.323c1.012,3.535,2.784,6.895,2.888,10.633
			c0.006,0.199-0.209,0.376-0.404,0.31c-5.542-1.936-9.819-6.602-13.281-11.156c-3.908-5.141-7.427-10.739-9.815-16.751
			c-5.338-13.424-5.622-27.758-5.862-41.994c-2.848,13.507-2.187,27.497-0.685,41.144c0.039,0.348-0.432,0.39-0.596,0.161
			c-2.504-3.514-4.714-7.263-6.597-11.172c0.518,2.536,1.159,5.05,1.945,7.532c2.392,7.543,6.976,16.604,13.515,21.354
			c5.678,11.221,14.212,20.559,24.754,26.103c7.712,4.054,15.802,5.996,24.015,6.053c5.194,2.32,10.719,4.036,15.938,5.919
			c7.538,2.72,15.435,4.369,23.377,3.804c4.271-0.305,8.473-1.304,12.59-2.654c4.428,1.06,9.015,1.372,13.597,1.316
			c4.582,0.056,9.169-0.257,13.595-1.316c4.12,1.351,8.32,2.35,12.592,2.654c7.943,0.565,15.84-1.084,23.376-3.804
			c5.221-1.883,10.746-3.599,15.94-5.919c8.211-0.057,16.301-1.999,24.014-6.053c10.543-5.544,19.077-14.882,24.755-26.103
			c6.538-4.751,11.122-13.811,13.513-21.354C267.068,167.72,267.608,154.909,265.976,142.289z"/>
		<path style="fill:#F2A418;" d="M73.246,84.158c-16.096,11.282-22.479,31.328-25.882,49.739c-0.352,1.91,2.318,0.532,2.61-0.593
			c2.25-8.645,4.24-17.359,7.67-25.636c3.383-8.16,8.813-16.89,15.951-22.311C74.184,84.911,74.138,83.532,73.246,84.158z"/>
		<path style="fill:#F2A418;" d="M44.696,89.894c-6.985,6.163-13.422,13.304-17.274,21.904c-3.862,8.624-6.386,18.424-6.435,27.906
			c-0.006,1.194,1.628-0.316,1.754-0.853c2.006-8.531,3.026-17.043,6.238-25.283c3.417-8.771,9.314-16.507,16.084-22.941
			C45.53,90.183,45.339,89.327,44.696,89.894z"/>
		<path style="fill:#F2A418;" d="M107.79,80.81c-3.31,5.129-7.066,9.861-9.603,15.451c-2.474,5.455-4.511,11.773-4.967,17.768
			c-0.135,1.755,2.075,0.472,2.327-0.531c1.402-5.541,2.794-11.12,4.879-16.452c2.206-5.644,5.874-10.577,8.762-15.872
			C109.92,79.832,108.397,79.867,107.79,80.81z"/>
		<path style="fill:#F2A418;" d="M199.289,96.427c-0.814-2.402-3.021-4.652-4.71-6.517c-1.938-2.139-4.452-3.327-6.788-4.948
			c-0.729-0.507-1.99,1.049-1.336,1.649c1.879,1.723,3.986,3.164,5.711,5.055c1.835,2.012,3.025,5.145,5.304,6.667
			C198.427,98.969,199.575,97.271,199.289,96.427z"/>
		<path style="opacity:0.5;fill:#8D4500;" d="M33.919,187.114c-0.217-2.003-3.354-14.563-7.383-9.515
			c-0.85-0.059-1.616,0.313-2.125,1.512c-1.098,2.587,0.389,6.208,1.48,8.56c0.894,1.92,2.885,5.624,5.317,5.659
			C34.134,193.37,34.111,188.886,33.919,187.114z"/>
		<path style="opacity:0.5;fill:#8D4500;" d="M39.07,201.374c-0.024-0.156-0.087-0.294-0.228-0.382
			c-0.205-0.127-0.295-0.146-0.538-0.15c-0.83-0.014-2.056,1.46-1.555,2.266c0.091,0.147,0.175,0.292,0.26,0.438
			c-0.037,0.941,0.071,2.02,0.969,2.49c0.792,0.415,1.811-0.602,1.85-1.388C39.887,203.5,39.664,202.359,39.07,201.374z"/>
		<path style="opacity:0.5;fill:#8D4500;" d="M60.83,192.025c-0.54-3.393-2.413-6.945-4.686-9.516
			c-2.193-2.481-4.784-0.487-5.562,2.106c-0.083,0.278-0.137,0.576-0.179,0.881c-1.021,2.561-0.859,5.555-0.122,8.263
			c0.671,2.457,3.48,9.116,7.231,7.709C61.218,200.077,61.358,195.34,60.83,192.025z"/>
		<path style="opacity:0.5;fill:#8D4500;" d="M82.873,216.086c-0.009-0.438-0.485-0.896-0.367-1.265
			c0.181-0.566,0.097-1.38-0.687-1.312c-0.444,0.039-0.888,0.327-1.216,0.699c-0.652-0.684-1.896,0.758-1.942,1.414
			c-0.104,1.462,0.159,4.566,2.317,4.056c1.11-0.263,1.884-1.507,1.926-2.597C82.916,216.746,82.879,216.421,82.873,216.086z"/>
		<path style="opacity:0.5;fill:#8D4500;" d="M71.772,165.617c-0.335-0.25-0.805-0.13-1.121,0.087
			c-0.519,0.356-1.155,1.126-0.846,1.807c-0.111-0.245,0.022,0.06,0.056,0.158c0.006,0.02,0.025,0.04,0.037,0.062
			c0.015,0.323,0.156,0.522,0.528,0.542c0.104,0.004,0.208,0.01,0.313,0.017c0.434,0.021,0.877-0.474,1.065-0.807
			c0.156-0.275,0.237-0.597,0.123-0.878C72.055,166.265,72.086,165.847,71.772,165.617z"/>
		<path style="opacity:0.5;fill:#8D4500;" d="M114.955,192.632c-0.606-1.615-2.642-4.655-4.638-4.299
			c-1.149,0.206-1.926,0.993-2.452,2.014c-0.526-0.014-1.067,0.23-1.605,0.896c-1.715,2.118-1.377,7.017-0.466,9.309
			c0.943,2.369,2.266,4.916,4.301,6.521c2.251,1.775,4.558-0.644,5.513-2.575C117.297,201.082,116.212,195.985,114.955,192.632z"/>
		<path style="opacity:0.5;fill:#8D4500;" d="M158.675,199.973c-0.049-0.1-0.124-0.151-0.209-0.175
			c0.029-0.977-0.239-1.904-1.243-2.25c-0.374-0.127-0.751,0.029-1.08,0.289c-0.337-0.184-1.006,0.038-1.351,0.605
			c-1.28,2.115-2.292,5.397-0.168,7.305c0.184,0.166,0.492,0.141,0.702,0.059c1.553-0.607,2.34-2.611,2.787-4.081
			c0.061-0.2,0.122-0.422,0.176-0.657c0.052-0.064,0.101-0.132,0.158-0.194C158.64,200.659,158.818,200.257,158.675,199.973z
			 M155.372,201.083c0.157,0.137,0.38,0.212,0.689,0.192c-0.031,0.272-0.095,0.541-0.129,0.721c-0.061,0.32-0.171,0.634-0.289,0.941
			C155.331,202.403,155.279,201.747,155.372,201.083z"/>
		<path style="opacity:0.5;fill:#8D4500;" d="M178.905,171.48c-0.113-0.227-0.3-0.312-0.507-0.316
			c0.006-0.101,0.013-0.203,0.016-0.304c0.068-0.322,0.204-0.64,0.217-0.968c0.01-0.235-0.066-0.423-0.211-0.517
			c-0.059-0.115-0.154-0.21-0.296-0.247c-0.347-0.09-0.691,0.13-0.943,0.338c-0.901,0.743-1.195,2.043-1.16,3.161
			c0.013,0.378,0.129,0.829,0.443,1.072c0.568,0.439,1.376-0.063,1.802-0.465C178.686,172.84,179.21,172.087,178.905,171.48z"/>
		<path style="opacity:0.5;fill:#8D4500;" d="M195.817,211.823c-0.271-0.069-0.538-0.069-0.801-0.02
			c-2.496-3.933-5.639,3.789-6.012,6.166c-0.414,2.626-0.674,5.899,1.183,8.02c1.49,1.702,4.211-0.921,4.953-2.203
			C196.541,221.367,200.779,213.118,195.817,211.823z M193.057,213.17c-0.71,0.84-1.27,1.888-1.585,2.658
			C191.8,214.359,192.313,213.13,193.057,213.17z"/>
		<path style="opacity:0.5;fill:#8D4500;" d="M216.739,191.819c-0.368-0.316-0.946,0.017-1.236,0.272
			c-0.271,0.24-0.573,0.654-0.656,1.069c-0.05,0.182-0.07,0.365-0.048,0.55c0,0,0,0.001,0,0.002
			c-0.094,0.169-0.157,0.346-0.165,0.523c-0.012,0.166,0.028,0.317,0.136,0.44c0.057,0.072,0.125,0.124,0.205,0.15
			c0.188,0.07,0.396,0.022,0.591-0.082c0.245,0.044,0.536-0.036,0.778-0.183c0.604-0.369,1.027-1.04,1.01-1.753
			C217.342,192.352,217.055,192.091,216.739,191.819z"/>
		<path style="opacity:0.5;fill:#8D4500;" d="M245.239,187.64c0.118-1.187,0.017-2.385-0.401-3.531
			c-0.784-2.146-2.841-1.162-3.855,0.187c-1.251,1.665-2.034,4.064-2.08,6.123c-0.038,1.632,0.434,3.599,2.052,3.386
			c1.036,0.106,1.991-0.729,2.682-1.682c1.022-1.142,1.636-2.64,1.643-4.18C245.279,187.819,245.263,187.725,245.239,187.64z
			 M242.454,186.73c0.175,0.419,0.187,0.934,0.217,1.382c0.015,0.214-0.031,0.743-0.126,1.301c-0.143,0.309-0.295,0.611-0.498,0.845
			c-0.044-0.251-0.089-0.502-0.134-0.754c-0.097-0.563-0.03-1.126,0.049-1.685c0.061-0.426,0.214-0.882,0.393-1.321
			C242.39,186.575,242.425,186.652,242.454,186.73z"/>
	</g>
</g>
</svg>
