<!DOCTYPE svg PUBLIC "-//W3C//DTD SVG 1.1//EN" "http://www.w3.org/Graphics/SVG/1.1/DTD/svg11.dtd">
<!-- Uploaded to: SVG Repo, www.svgrepo.com, Transformed by: SVG Repo Mixer Tools -->
<svg height="64px" width="64px" version="1.1" id="Layer_1" xmlns="http://www.w3.org/2000/svg" xmlns:xlink="http://www.w3.org/1999/xlink" viewBox="0 0 512 512" xml:space="preserve" fill="#DDDDDD" stroke="#DDDDDD">
<g id="SVGRepo_bgCarrier" stroke-width="0"/>
<g id="SVGRepo_tracerCarrier" stroke-linecap="round" stroke-linejoin="round"/>
<g id="SVGRepo_iconCarrier"> <g> <path style="fill:#DDDDDD;" d="M209.78,221.844c-1.116,0-2.197-0.448-2.992-1.234L54.667,68.489c-1.648-1.648-1.648-4.327,0-5.975 c1.648-1.648,4.327-1.648,5.975,0L211.42,213.292c9.229-0.778,19.784-4.969,32.157-12.77V4.226c0-2.333,1.893-4.226,4.226-4.226 s4.226,1.893,4.226,4.226v198.604c0,1.428-0.718,2.764-1.918,3.541c-15.347,9.989-28.497,15.052-40.186,15.474 C209.882,221.844,209.831,221.844,209.78,221.844z"/> <path style="fill:#DDDDDD;" d="M302.744,314.808c-1.411,0-2.772-0.718-3.566-1.952l-28.793-45.248 c-1.386-0.811-2.333-2.062-2.772-2.645c-5.197-6.845-27.188-57.257-23.528-64.119c1.099-2.054,3.651-2.84,5.721-1.741 c1.724,0.921,2.552,2.865,2.13,4.69c0.389,6.296,14.283,42.797,20.858,53.834c3.321-6.761,8.967-22.903,13.235-36.999 c0.549-1.817,2.113-2.84,4.124-3c1.893,0.034,3.524,1.318,4.006,3.152l10.268,39.104h189.535c2.333,0,4.226,1.893,4.226,4.226 c0,2.333-1.893,4.226-4.226,4.226H305.533l1.428,42.112c0.068,1.902-1.149,3.617-2.975,4.175 C303.58,314.749,303.158,314.808,302.744,314.808z M280.855,268.326l17.131,26.926l-0.921-26.926H280.855z M281.007,259.875h14.663 l-5.983-22.784C286.027,248.229,283.204,255.328,281.007,259.875z"/> <path style="fill:#DDDDDD;" d="M200.273,259.875H18.039c-2.333,0-4.226-1.893-4.226-4.226s1.893-4.226,4.226-4.226h179.96 c7.606-11.815,10.04-22.311,7.657-32.875c-0.507-2.282,0.913-4.538,3.195-5.054c2.265-0.549,4.538,0.904,5.054,3.186 c3.017,13.37-0.304,26.892-10.141,41.343C202.977,259.182,201.667,259.875,200.273,259.875z"/> <path style="fill:#DDDDDD;" d="M74.561,441.576c-1.082,0-2.164-0.414-2.992-1.234c-1.648-1.648-1.648-4.327,0-5.975L220.868,285.06 l-23.748-26.596c-0.879-0.98-1.251-2.324-0.997-3.626c0.254-1.293,1.099-2.4,2.29-2.992c14.485-7.107,30.619-28.903,45.907-51.4 c1.31-1.935,3.947-2.409,5.865-1.124c1.935,1.31,2.434,3.947,1.124,5.874c-14.392,21.179-29.63,41.825-44.42,51.51l22.945,25.7 c1.496,1.673,1.42,4.217-0.161,5.806L77.553,440.334C76.724,441.162,75.643,441.576,74.561,441.576z"/> <path style="fill:#DDDDDD;" d="M256.262,512c-2.333,0-4.226-1.893-4.226-4.226V326.318l-28.743-38.563 c-1.082-1.454-1.116-3.44-0.085-4.935c10.505-15.145,16.429-51.003,20.41-80.549c0.177-1.327,0.972-2.485,2.138-3.135 c1.166-0.625,2.578-0.701,3.786-0.152l39.594,17.815L430.746,75.182c1.648-1.648,4.327-1.648,5.975,0s1.648,4.327,0,5.975 L293.05,224.828c-1.242,1.234-3.127,1.58-4.724,0.87l-37.109-16.7c-4.073,29.157-9.643,59.674-19.412,76.044l27.838,37.346 c0.541,0.727,0.837,1.614,0.837,2.527v182.859C260.488,510.107,258.595,512,256.262,512z"/> <path style="fill:#DDDDDD;" d="M437.963,450.027c-1.082,0-2.164-0.414-2.992-1.234L301.552,315.366l-44.048,13.581 c-2.231,0.727-4.589-0.558-5.282-2.789c-0.685-2.231,0.566-4.597,2.789-5.282l46.482-14.333c1.479-0.499,3.127-0.068,4.234,1.048 L440.946,442.81c1.648,1.648,1.648,4.327,0,5.975C440.127,449.613,439.045,450.027,437.963,450.027z"/> <path style="fill:#DDDDDD;" d="M264.637,294.28c-11.722,0-25.252-2.223-38.783-4.91c-2.29-0.456-3.778-2.679-3.313-4.969 c0.456-2.29,2.645-3.803,4.969-3.321c20.553,4.082,45.594,7.86,56.801,0.592c1.961-1.251,4.581-0.71,5.848,1.251 c1.268,1.952,0.71,4.572-1.242,5.84C282.74,292.775,274.305,294.28,264.637,294.28z"/> <path style="fill:#DDDDDD;" d="M255.561,496.906c-0.955,0-1.91-0.33-2.679-0.955c-0.439-0.363-0.786-0.794-1.039-1.276 c-10.048-7.589-118.621-50.073-164.909-67.179c-2.189-0.811-3.313-3.237-2.493-5.434c0.811-2.18,3.245-3.313,5.426-2.493 c18.331,6.778,60.925,23.055,98.203,38.014c44.31,17.79,61.669,25.616,68.184,30.044c49.786-24.754,112.012-53.834,159.694-64.246 c21.711-63.012,45.062-115.232,71.32-159.491c-32.503-67.855-54.671-124.055-67.703-171.627 C372.618,78.85,317.947,57.198,247.904,24.255c-10.006,5.214-20.224,10.623-30.45,16.032 C164.347,68.353,114.062,94.941,89.612,98.203l-1.623,5.096c-19.193,60.367-39.019,122.729-55.854,153.373 c28.43,49.009,59.209,104.432,74.869,147.829c56.15,13.116,113.517,27.196,149.13,42.636c42.307-30.484,80.642-52,117.041-65.683 c10.725-46.6,23.706-84.926,39.636-116.982c-22.683-32.436-39.788-70.711-50.893-113.863 c-47.183-13.125-85.509-27.999-113.998-44.251c-35.394,22.522-67.297,36.983-102.801,46.592 c-10.885,41.301-25.971,78.588-41.749,103.172c4.2,6.465,8.426,12.787,12.559,18.973c18.677,27.948,36.357,54.409,41.208,79.501 c43.008,5.882,74.599,13.995,98.888,25.413c23.934-19.936,49.042-38.588,72.055-43.49c3.566-25.962,11.62-49.279,24.576-71.1 c-14.206-21.483-24.762-46.608-31.405-74.768c-26.976-6.617-51.502-16.615-72.959-29.731 c-25.007,14.223-46.887,23.511-66.731,28.32c-3.888,19.97-12.584,41.259-26.495,64.905c13.843,19.607,25.261,41.512,34.819,66.781 c21.458,1.242,43.203,6.769,66.3,16.852l44.149-30.669c1.918-1.318,4.547-0.854,5.882,1.065c1.335,1.91,0.862,4.547-1.056,5.882 l-46.093,32.013c-1.217,0.837-2.789,0.972-4.133,0.38c-23.925-10.699-46.237-16.328-68.193-17.215 c-1.707-0.076-3.195-1.166-3.786-2.755c-9.863-26.647-21.745-49.431-36.34-69.646c-0.989-1.369-1.065-3.203-0.194-4.648 c14.654-24.458,23.858-47.048,27.34-67.162c0.296-1.682,1.572-3.017,3.245-3.397c20.283-4.53,42.949-14.105,69.283-29.283 c1.361-0.769,3.034-0.744,4.352,0.085c21.846,13.708,47.124,24.01,75.123,30.619c1.572,0.372,2.797,1.606,3.152,3.178 c6.592,29.165,17.443,54.967,32.25,76.695c0.938,1.369,0.98,3.169,0.11,4.581c-13.649,22.294-21.889,46.211-25.193,73.12 c-0.228,1.876-1.665,3.372-3.524,3.668c-22.548,3.575-49.642,24.221-73.171,43.946c-1.285,1.073-3.068,1.293-4.572,0.558 c-24.331-11.899-56.691-20.232-101.846-26.233c-1.868-0.245-3.347-1.699-3.626-3.566c-3.626-24.154-20.68-49.668-40.414-79.205 c-4.657-6.955-9.415-14.088-14.122-21.39c-0.904-1.411-0.896-3.228,0.034-4.631c16.125-24.23,31.709-62.624,42.755-105.327 c0.38-1.487,1.538-2.645,3.009-3.026c36.298-9.558,68.666-24.221,104.947-47.555c1.344-0.854,3.042-0.896,4.42-0.093 c28.54,16.666,67.77,31.92,116.593,45.349c1.471,0.406,2.603,1.563,2.975,3.042c11.054,44.031,28.438,82.881,51.654,115.486 c0.913,1.276,1.04,2.958,0.33,4.361c-16.395,32.402-29.672,71.506-40.591,119.551c-0.321,1.394-1.318,2.544-2.662,3.026 c-36.873,13.573-75.833,35.427-119.12,66.815c-1.225,0.896-2.823,1.065-4.209,0.439c-35.191-15.728-94.425-30.171-152.08-43.625 c-1.403-0.33-2.544-1.352-3.026-2.713c-15.381-43.667-47.149-100.671-76.196-150.668c-0.761-1.301-0.761-2.916-0.008-4.226 c16.649-29.021,36.822-92.482,56.327-153.863l2.468-7.741c0.532-1.665,2.037-2.84,3.786-2.941 c21.339-1.225,75.216-29.706,127.318-57.249c10.868-5.747,21.745-11.485,32.351-17.012c1.175-0.617,2.561-0.642,3.752-0.076 c71.666,33.771,127.123,55.719,174.543,69.055c1.437,0.406,2.552,1.538,2.941,2.975c12.93,48.028,35.428,105.108,68.776,174.518 c0.617,1.276,0.541,2.78-0.177,4.006c-26.74,44.69-50.462,97.721-72.52,162.111c-0.49,1.411-1.682,2.468-3.144,2.764 c-47.842,9.922-112.012,40.118-162.576,65.319C256.854,496.754,256.203,496.906,255.561,496.906z"/> </g> </g>
</svg>