<svg xmlns="http://www.w3.org/2000/svg" xml:space="preserve" width="800" height="800" viewBox="0 0 272 272"><path d="M264.436 178.768c-10.482-3.947-17.772-7.112-21.863-9.525-7.42-4.112-12.317-12.228-14.678-24.363-1.957-10.082-.646-19.536 3.944-28.311 4.585-8.797 11.706-14.774 21.345-17.922l-.42-2.164c7.242-2.297 13.418-4.343 18.525-6.143v-1.22l-32.966 8.884c-1.401.488-4.664.163-9.792-.973-7.604-1.726-14.428-5.793-20.472-12.204-6.053-6.392-9.835-13.505-11.356-21.326-1.925-9.886-.314-18.62 4.826-26.247l-1.417-.683a3024.676 3024.676 0 0 0 10.438-17.862h-2.021c-3.805 5.776-6.93 10.617-9.38 14.523-3.319 4.916-5.784 8.708-7.398 11.371-3.983 4.826-10.589 8.146-19.85 9.948-17.487 3.402-32.085-1.343-43.763-14.245-3.067-3.658-4.889-6.408-5.452-8.228-2.099-10.206-3.889-18.453-5.361-24.74h-1.463c.902 6.534 1.734 11.751 2.495 15.653l-1.546.297c1.79 11.404-.456 21.78-6.756 31.114-6.302 9.333-15.111 15.111-26.422 17.31-10.906 2.121-21.088-.281-30.545-7.198l-.062-.312-.797.803c-7.545-5.42-13.806-9.875-18.779-13.362h-2.292a2824.53 2824.53 0 0 0 14.968 11.662c11.092 8.733 17.462 17.328 19.102 25.759 2.198 11.315-.052 21.996-6.736 32.057-6.691 10.056-15.598 16.17-26.713 18.328-1.64.322-3.413.551-5.303.706l-.732-.496c-.271.902-.49 1.38-.694 1.421L0 144.49v2.09c8.981-.876 16.463-1.691 22.444-2.438l11.292-1.225c8.507.897 15.724 4.519 21.65 10.834 5.92 6.323 9.723 13.81 11.402 22.453 2.362 12.134.831 21.824-4.588 29.079-4.424 4.707-7.899 8.257-10.423 10.665a2067.103 2067.103 0 0 0-14.095 13.353h4.258c5.072-4.876 9.358-9.094 12.858-12.656l.374.251c6.229-5.271 12.75-8.56 19.538-9.882 11.307-2.197 21.841.063 31.59 6.825 9.752 6.755 15.726 15.79 17.924 27.103.681 3.498.48 10.161-.591 19.973l-.437 3.748h1.434c1.078-6.894 1.895-12.637 2.451-17.231 4.397-14.733 14.934-23.724 31.591-26.964 10.292-2 19.122-1.039 26.503 2.854 5.49 2.977 11.039 8.43 16.629 16.312 1.772 2.646 3.529 5.279 5.269 7.898h2.151l-1.162-2.068c-5.215-9.235-8.037-14.99-8.478-17.248-2.321-11.939-.446-22.926 5.604-32.962 6.055-10.032 14.945-16.198 26.67-18.478 6.374-1.24 13.658-.625 21.822 1.84l.627-1.729c7 2.561 12.898 4.702 17.693 6.424v-1.613c-2.32-.93-4.844-1.906-7.564-2.93zm-26.5-77.803c-.82.159.578.21 4.19.147-15.015 10.604-20.704 25.279-17.069 43.984 1.564 8.04 5.081 15.149 10.555 21.334l-10.396-4.058-.118-.618c-10.831-4.085-17.343-11.788-19.546-23.104-3.92-20.17 6.876-32.726 32.384-37.685zM89.072 160.652c-2.116-10.896-7.916-18.21-17.4-21.921 15.406-3.201 24.412 1.989 27.05 15.563 1.521 7.823-.685 14.549-6.639 20.188l.428.554-5.385 5.22c2.541-6.691 3.186-13.227 1.946-19.604zm-.792-60.057c-.479-2.474-1.283-4.983-2.423-7.533 6.722 4.877 10.597 10.001 11.637 15.356 1.24 6.368-.17 12.251-4.261 17.636-4.074 5.385-9.296 8.169-15.67 8.338l-.189.673-6.599.648c6.588-3.425 11.514-8.333 14.749-14.728 3.235-6.39 4.157-13.193 2.756-20.39zm91.685-21.027c1.398 7.202 4.77 13.272 10.111 18.212 5.338 4.937 11.643 7.979 18.908 9.138l-17.852 5.393c-4.236 1.246-8.508-.123-12.792-4.082-4.302-3.971-6.868-8.114-7.713-12.452-.999-5.133-.144-10.088 2.555-14.888l-.062-.315 6.338-10.2c-.345 2.631-.175 5.697.507 9.194zm2.664 56.482c.885 4.545 2.679 8.352 5.419 11.449l-12.427-4.642.621-1.717-.309.06c-4.143-1.54-6.611-4.372-7.41-8.483-1.6-8.229 4.588-13.71 18.578-16.43l1.242-.243c-5.333 5.531-7.232 12.202-5.714 20.006zm-65.774 7.669c-.881-4.525-2.918-7.86-6.111-10.015l10.552-1.736.548 1.178.365.251c2.717-.328 4.39 1.172 5.035 4.469.318 1.643-.931 4.013-3.735 7.127a261.93 261.93 0 0 0-6.88 5.82c.587-2.459.667-4.825.226-7.094zm-16.33 9.912c-1.562-8.03-5.762-13.725-12.615-17.091l.926-.178c6.588-1.281 12.521-2.005 17.825-2.188 4.764 2.492 7.562 5.896 8.402 10.214.758 3.907-.952 8.299-5.127 13.166a431.557 431.557 0 0 0-10.732 10.744c1.788-5.046 2.239-9.936 1.321-14.667zm-.249-45.756c-.2-1.025-.765-2.843-1.702-5.435 5.978 4.383 10.455 7.677 13.451 9.871l.847 2.72c.677 3.499.052 6.829-1.899 9.982-1.945 3.155-4.575 5.046-7.864 5.686l-1.599-.011-.011 1.605-12.589 1.167c9.746-5.944 13.523-14.49 11.366-25.585zm65.716 25.015c.562 2.881 1.803 5.417 3.723 7.603l-.312.06a95.65 95.65 0 0 1-8.615-3.124c-3.733-1.624-5.754-3.26-6.072-4.903-.562-2.889.438-4.889 2.989-6.029-.039-.209-.099-.503-.181-.933l-.181-.919 10.989-2.785c-2.362 3.227-3.14 6.91-2.34 11.03zm-23.67-1.476 10.887 4.916c-2.232.655-3.855 2.147-4.89 4.474l-5.997-9.39zm5.361 12.724c-2.012-.466-3.636-.583-4.876-.339-1.844.354-3.294 1.178-4.322 2.453.518-6.08.773-11.371.758-15.843l1.055-1.174 7.263 14.273.122.63zm4.129-11.696.609 1.487c-4.768-1.427-8.293-2.547-10.592-3.397l-1.287-1.668c3.135-.393 6.816-1.211 11.055-2.465l1.663.318c-1.328 1.966-1.807 3.871-1.448 5.725zm-9.224-4.614 4.477-6.623c1.213 1.899 2.229 3.19 2.997 3.882l-7.474 2.741zm8.911-5.256c-1.065-1.075-1.679-2.018-1.839-2.848-.28-1.435.58-3.628 2.567-6.579a127.607 127.607 0 0 1 4.286-5.96c.107 2.758 1.358 5.336 3.745 7.754 2.392 2.429 4.923 3.905 7.596 4.452l-13.589 4.246c-.777.375-1.709.015-2.766-1.065zm-2.678-7.166-.739-.496c-1.239 1.319-2.477 2.083-3.709 2.324-3.502.682-5.526-.415-6.088-3.302l-2.036-12.102c5 3.73 10.067 5.104 15.209 4.104.205-.041.803-.272 1.797-.677.619-.118 1.129-.22 1.547-.299h.001l-5.982 10.448zm-8.882 11.974c.296-.695.081-3.425-.633-8.199 1.924 1.122 3.92 1.479 5.97 1.078l.87-.484c-1.822 3.771-3.217 6.5-4.18 8.175l-3.149 1.896-.431-.563.613-.118-1.289-.066c-3.32-2.765-5.86-4.839-7.613-6.203 3.167-.186 5.645-1.736 7.423-4.653 1.216 4.037 2.019 7.086 2.419 9.137zm-3.524 1.65-8.206.63c.956-1.667 1.377-3.359 1.263-5.035l6.943 4.405zm.745.492 1.106.755-8.687 8.096c-.352-2.928-1.514-5.05-3.479-6.377l1.113-.855c2.762-.108 6.065-.649 9.947-1.619zm1.84 1.251-2.359 14.219c-1.461-3.123-3.937-4.354-7.45-3.673L139 130.773zm-1.096 19.906c.344-3.161 1.854-5 4.529-5.522 2.676-.518 4.893.441 6.65 2.86l.859-.478 5.066 9.587c-2.911-1.784-6.215-2.317-9.924-1.596-3.077.599-5.691 1.957-7.848 4.091.105-2.791.323-5.771.668-8.942zm11.873-7.274c.145-2.587 1.641-4.155 4.53-4.719 1.073 0 2.058.126 2.961.378l.128-.978 8.056 3.556c-2.226.65-4.302 2.326-6.224 5.055-1.924 2.727-2.874 5.256-2.848 7.593l-6.603-10.885zm15.666-28.184c-3.35-1.798-5.354-4.457-6.036-7.954-.48-2.48.319-5.512 2.395-9.115a234.385 234.385 0 0 0 5.411-8.421c-.019 2.138.119 3.926.4 5.369 1.96 10.082 7.266 16.526 15.929 19.322l-7.538 2.423-.123-.616c-3.619 1.132-7.098.797-10.438-1.008zm-6.484-16.843-1.051-.43c-.954 2.741-3.283 4.482-6.987 5.199-9.257 1.803-14.831-2.138-16.71-11.803l-1.07-7.155c6.495 7.052 15.101 9.558 25.801 7.478.609-.122 2.301-.773 5.062-1.946l-5.045 8.657zm-25.782 2.455.554-.427 2.581 13.274-.922.178c.224 3.371-1.306 5.374-4.596 6.014-1.44.281-2.883.034-4.312-.763l-.503.737-11.355-9.001c1.802.503 3.837.545 6.099.104 6.178-1.198 10.325-4.578 12.454-10.116zM115.71 114.8c4.466 3.177 7.802 5.529 10.024 7.019l1.085 2.347c.2 1.033-.039 2.251-.727 3.665-.686 1.419-1.439 2.198-2.26 2.358l-16.352 1.582c2.723-1.382 4.969-3.791 6.763-7.229 1.787-3.446 2.269-6.699 1.467-9.742zm10.572 29.654.68.191a4.564 4.564 0 0 1 2.591-1.468c2.879-.562 5.133.602 6.777 3.493l-2.011 16.07c-.184-3.155-1.963-5.962-5.314-8.406-3.358-2.442-6.458-3.286-9.296-2.516l-.624.118 7.197-7.482zm10.699 17.14c2.484-2.625 5.052-4.198 7.731-4.719 5.354-1.04 10.069 1.258 14.147 6.871.573.737 3.379 5.855 8.436 15.327-5.668-3.812-11.679-5.088-18.056-3.849-5.967 1.158-10.874 3.926-14.72 8.299 1.12-9.604 1.945-16.908 2.462-21.929zm21.665-3.903c-.598-3.074.085-6.143 2.06-9.205 1.972-3.043 4.496-4.873 7.577-5.472.659.092 1.094.103 1.291.065 9.029 3.574 15.755 6.34 20.183 8.254-6.214.988-11.336 3.494-15.362 7.465-4.028 3.99-6.185 9.111-6.466 15.356-6.267-11.386-9.361-16.863-9.283-16.463zm9.711-75.233c-2.936 3.564-6.87 5.833-11.812 6.792-5.552 1.081-10.912.147-16.084-2.813-5.164-2.938-8.283-7.191-9.36-12.743l-2.166-11.118c8.821 11.317 20.643 15.522 35.454 12.642 3.912-.763 7.682-2.232 11.312-4.435-4.73 7.541-7.178 11.439-7.344 11.675zm-38.056 1.967 1.676 8.629-.61.119c.943 8.146-2.811 13.038-11.249 14.679-4.115.801-7.243.035-9.416-2.331l-1.306 1.532-7.119-5.329c3.207.011 5.735-.155 7.587-.515 10.287-2.002 17.109-7.604 20.437-16.784zm-6.746 5.628c-4.142 4.545-8.978 7.357-14.536 8.438-4.934.958-9.201.492-12.758-1.369-.448-.126-3.935-2.649-10.446-7.576 4.027.929 8.296.943 12.831.062 14.604-2.842 23.697-11.544 27.272-26.116l2.34 12.041c.999 5.136-.573 9.983-4.703 14.52zM94.67 176.228c3.22-3.194 6.169-5.054 8.843-5.573 5.763-1.12 11.177.068 16.229 3.582 5.056 3.498 8.165 8.225 9.324 14.197.122.616.178 1.725.173 3.326-.007 1.613.037 2.721.159 3.344l.061.297.876-2.093-1.618 14.731c-1.395-9.342-5.681-16.301-12.865-20.885-7.191-4.58-15.515-5.952-24.986-4.113-1.644.318-2.843.77-3.585 1.348a238.408 238.408 0 0 1 7.389-8.161zm35.363 15.542c.176-1.318.121-2.693-.161-4.143-1.235-6.361-4.508-11.384-9.809-15.061-5.308-3.656-11.259-4.863-17.841-3.586 8.189-8.412 13-13.298 14.45-14.66l2.411-.783c3.286-.635 6.347 0 9.175 1.904 2.828 1.911 4.556 4.498 5.196 7.798.323 1.647.021 6.407-.906 14.271-.928 7.855-1.759 12.622-2.515 14.26zm4.229-6.274c3.361-4.697 8.219-7.676 14.601-8.917 9.875-1.922 17.34 1.329 22.396 9.741l.311-.062 9.826 17.633c-9.041-9.139-19.415-12.574-31.14-10.292-7.622 1.479-13.636 5.65-18.073 12.487.983-9.164 1.694-16.025 2.079-20.59zm46.194 10.245-10.506-17.827c-.676-5.623.677-10.742 4.054-15.352 3.369-4.611 7.841-7.457 13.399-8.538 4.517-.881 12.37 1.019 23.526 5.675-9.225 2.008-16.582 6.168-22.078 12.473-5.5 6.301-8.298 14.156-8.395 23.569zm15.537-45.309c-5.784-3.354-9.286-8.226-10.526-14.604-2.16-11.114 1.763-18.374 11.762-21.83l.199-.661 14.512-4.438c-8.148 8.634-11.1 18.717-8.861 30.232 1.439 7.408 4.886 13.584 10.336 18.493-10.64-4.124-16.438-6.514-17.422-7.192zm-1.665-104.089c-1.461 5.621-1.605 11.525-.404 17.699 1.801 9.259 6.056 17.128 12.762 23.62 6.713 6.489 14.629 10.769 23.793 12.828l-11.609 2.904c-8.226 1.599-15.848-.012-22.879-4.84-7.021-4.833-11.328-11.362-12.93-19.585-.52-2.683-.535-6.26-.011-10.74.519-4.47 1.648-7.2 3.373-8.182l-.367-.246 8.272-13.458zm-48.172 9.207c8.68 2.903 17.434 3.494 26.288 1.773 5.559-1.081 10.528-2.901 14.943-5.475l-3.913 6.217-.307.06c-3.044 7.425-9.495 12.089-19.374 14.01-8.032 1.562-15.854.307-23.477-3.765-7.626-4.061-12.217-10.116-13.78-18.138l-1.858-9.564c5.635 7.024 12.792 11.981 21.478 14.882zM84.17 74.483c9.671-1.878 18.035-6.641 25.082-14.323 7.043-7.67 10.801-16.362 11.263-26.059l3.483 17.917c1.274 7.643-.81 14.989-6.276 22.032-5.474 7.04-12.107 11.32-19.925 12.841-8.233 1.598-15.296-.126-21.181-5.167l-.563.43-11.546-8.34c6.934 1.661 13.496 1.871 19.663.669zm-21.078 43.971c5.034-9.821 6.561-19.79 4.604-29.867-.763-3.908-2.151-7.803-4.189-11.673a309.404 309.404 0 0 1 13.76 9.811c4.409 4.05 7.159 8.854 8.241 14.409 1.557 8.016.113 15.408-4.343 22.148-4.453 6.743-10.583 10.87-18.405 12.391-2.053.4-3.524.574-4.379.529l-.137.98-16.9 2.007c9.474-3.975 16.723-10.887 21.748-20.735zm5.803 57.007c-3.402-17.478-12.713-28.584-27.937-33.314 10.689-2.08 19.039-3.069 25.046-2.953 4.76.363 9.208 2.86 13.316 7.519 4.102 4.638 6.652 9.529 7.656 14.673 1.639 8.44.207 15.862-4.317 22.289-.952 1.691-6.266 7.312-15.937 16.881 3.095-8.294 3.812-16.652 2.173-25.095zm56.065 65.986c.087-1.73-.526-4.395-1.865-7.971-3.41-9.805-9.854-17.461-19.367-22.973-9.508-5.528-19.399-7.285-29.69-5.281-3.908.758-7.986 2.303-12.236 4.619a881.669 881.669 0 0 1 14.326-15.281c6.327-5.911 12.053-9.387 17.202-10.387 8.631-1.681 16.206-.114 22.701 4.708 6.487 4.835 10.544 11.458 12.188 19.9.275 1.442-.806 12.326-3.259 32.666zm71.289-12.259c-10.84-9.64-23.364-13.081-37.562-10.324-14.606 2.843-24.948 11.153-31.022 24.929 1.807-15.93 3.231-27.851 4.252-35.732 4.604-7.09 10.608-11.357 18.021-12.802 14.392-2.798 26.017 2.636 34.873 16.282l.863-.49 10.575 18.137zm35.437-54.932c-11.726 2.275-20.842 8.364-27.344 18.278-6.511 9.912-8.937 20.794-7.273 32.646l-14.536-25.361c-.825-8.596 1.265-16.529 6.264-23.795 4.995-7.273 11.701-11.725 20.136-13.363 3.502-.682 6.152-.779 7.963-.271 2.668.552 7.369 2.243 14.116 5.105 6.744 2.849 11.001 4.961 12.765 6.332-4.357-.445-8.383-.293-12.091.429z" style="fill:#fff"/></svg>