<svg xmlns="http://www.w3.org/2000/svg" xml:space="preserve" width="64" height="64" fill="#DDD" stroke="#DDD" viewBox="0 0 512 512"><path d="M209.78 221.844a4.272 4.272 0 0 1-2.992-1.234L54.667 68.489a4.229 4.229 0 0 1 0-5.975 4.229 4.229 0 0 1 5.975 0L211.42 213.292c9.229-.778 19.784-4.969 32.157-12.77V4.226a4.227 4.227 0 0 1 8.452 0V202.83a4.216 4.216 0 0 1-1.918 3.541c-15.347 9.989-28.497 15.052-40.186 15.474l-.145-.001z" style="fill:#ddd"/><path d="M302.744 314.808a4.254 4.254 0 0 1-3.566-1.952l-28.793-45.248c-1.386-.811-2.333-2.062-2.772-2.645-5.197-6.845-27.188-57.257-23.528-64.119a4.232 4.232 0 0 1 5.721-1.741 4.236 4.236 0 0 1 2.13 4.69c.389 6.296 14.283 42.797 20.858 53.834 3.321-6.761 8.967-22.903 13.235-36.999.549-1.817 2.113-2.84 4.124-3a4.216 4.216 0 0 1 4.006 3.152l10.268 39.104h189.535a4.227 4.227 0 0 1 0 8.452H305.533l1.428 42.112a4.208 4.208 0 0 1-4.217 4.36zm-21.889-46.482 17.131 26.926-.921-26.926h-16.21zm.152-8.451h14.663l-5.983-22.784c-3.66 11.138-6.483 18.237-8.68 22.784zM200.273 259.875H18.039a4.227 4.227 0 0 1 0-8.452h179.96c7.606-11.815 10.04-22.311 7.657-32.875a4.229 4.229 0 0 1 3.195-5.054c2.265-.549 4.538.904 5.054 3.186 3.017 13.37-.304 26.892-10.141 41.343a4.224 4.224 0 0 1-3.491 1.852z" style="fill:#ddd"/><path d="M74.561 441.576a4.243 4.243 0 0 1-2.992-1.234 4.229 4.229 0 0 1 0-5.975L220.868 285.06l-23.748-26.596a4.223 4.223 0 0 1-.997-3.626 4.263 4.263 0 0 1 2.29-2.992c14.485-7.107 30.619-28.903 45.907-51.4 1.31-1.935 3.947-2.409 5.865-1.124a4.229 4.229 0 0 1 1.124 5.874c-14.392 21.179-29.63 41.825-44.42 51.51l22.945 25.7a4.23 4.23 0 0 1-.161 5.806L77.553 440.334a4.22 4.22 0 0 1-2.992 1.242z" style="fill:#ddd"/><path d="M256.262 512a4.227 4.227 0 0 1-4.226-4.226V326.318l-28.743-38.563a4.239 4.239 0 0 1-.085-4.935c10.505-15.145 16.429-51.003 20.41-80.549a4.23 4.23 0 0 1 2.138-3.135c1.166-.625 2.578-.701 3.786-.152l39.594 17.815 141.61-141.617c1.648-1.648 4.327-1.648 5.975 0s1.648 4.327 0 5.975L293.05 224.828a4.262 4.262 0 0 1-4.724.87l-37.109-16.7c-4.073 29.157-9.643 59.674-19.412 76.044l27.838 37.346c.541.727.837 1.614.837 2.527v182.859a4.215 4.215 0 0 1-4.218 4.226z" style="fill:#ddd"/><path d="M437.963 450.027a4.243 4.243 0 0 1-2.992-1.234L301.552 315.366l-44.048 13.581c-2.231.727-4.589-.558-5.282-2.789a4.229 4.229 0 0 1 2.789-5.282l46.482-14.333c1.479-.499 3.127-.068 4.234 1.048L440.946 442.81a4.229 4.229 0 0 1 0 5.975 4.182 4.182 0 0 1-2.983 1.242zM264.637 294.28c-11.722 0-25.252-2.223-38.783-4.91a4.213 4.213 0 0 1-3.313-4.969c.456-2.29 2.645-3.803 4.969-3.321 20.553 4.082 45.594 7.86 56.801.592 1.961-1.251 4.581-.71 5.848 1.251a4.227 4.227 0 0 1-1.242 5.84c-6.177 4.012-14.612 5.517-24.28 5.517z" style="fill:#ddd"/><path d="M255.561 496.906c-.955 0-1.91-.33-2.679-.955a4.155 4.155 0 0 1-1.039-1.276c-10.048-7.589-118.621-50.073-164.909-67.179a4.218 4.218 0 0 1-2.493-5.434c.811-2.18 3.245-3.313 5.426-2.493 18.331 6.778 60.925 23.055 98.203 38.014 44.31 17.79 61.669 25.616 68.184 30.044 49.786-24.754 112.012-53.834 159.694-64.246 21.711-63.012 45.062-115.232 71.32-159.491-32.503-67.855-54.671-124.055-67.703-171.627-46.947-13.413-101.618-35.065-171.661-68.008-10.006 5.214-20.224 10.623-30.45 16.032-53.107 28.066-103.392 54.654-127.842 57.916l-1.623 5.096C68.796 163.666 48.97 226.028 32.135 256.672c28.43 49.009 59.209 104.432 74.869 147.829 56.15 13.116 113.517 27.196 149.13 42.636 42.307-30.484 80.642-52 117.041-65.683 10.725-46.6 23.706-84.926 39.636-116.982-22.683-32.436-39.788-70.711-50.893-113.863-47.183-13.125-85.509-27.999-113.998-44.251-35.394 22.522-67.297 36.983-102.801 46.592-10.885 41.301-25.971 78.588-41.749 103.172 4.2 6.465 8.426 12.787 12.559 18.973 18.677 27.948 36.357 54.409 41.208 79.501 43.008 5.882 74.599 13.995 98.888 25.413 23.934-19.936 49.042-38.588 72.055-43.49 3.566-25.962 11.62-49.279 24.576-71.1-14.206-21.483-24.762-46.608-31.405-74.768-26.976-6.617-51.502-16.615-72.959-29.731-25.007 14.223-46.887 23.511-66.731 28.32-3.888 19.97-12.584 41.259-26.495 64.905 13.843 19.607 25.261 41.512 34.819 66.781 21.458 1.242 43.203 6.769 66.3 16.852l44.149-30.669a4.238 4.238 0 0 1 5.882 1.065 4.223 4.223 0 0 1-1.056 5.882l-46.093 32.013a4.271 4.271 0 0 1-4.133.38c-23.925-10.699-46.237-16.328-68.193-17.215a4.24 4.24 0 0 1-3.786-2.755c-9.863-26.647-21.745-49.431-36.34-69.646a4.224 4.224 0 0 1-.194-4.648c14.654-24.458 23.858-47.048 27.34-67.162a4.237 4.237 0 0 1 3.245-3.397c20.283-4.53 42.949-14.105 69.283-29.283a4.25 4.25 0 0 1 4.352.085c21.846 13.708 47.124 24.01 75.123 30.619a4.228 4.228 0 0 1 3.152 3.178c6.592 29.165 17.443 54.967 32.25 76.695a4.21 4.21 0 0 1 .11 4.581c-13.649 22.294-21.889 46.211-25.193 73.12a4.224 4.224 0 0 1-3.524 3.668c-22.548 3.575-49.642 24.221-73.171 43.946a4.224 4.224 0 0 1-4.572.558c-24.331-11.899-56.691-20.232-101.846-26.233a4.223 4.223 0 0 1-3.626-3.566c-3.626-24.154-20.68-49.668-40.414-79.205-4.657-6.955-9.415-14.088-14.122-21.39a4.242 4.242 0 0 1 .034-4.631c16.125-24.23 31.709-62.624 42.755-105.327a4.199 4.199 0 0 1 3.009-3.026c36.298-9.558 68.666-24.221 104.947-47.555a4.242 4.242 0 0 1 4.42-.093c28.54 16.666 67.77 31.92 116.593 45.349a4.217 4.217 0 0 1 2.975 3.042c11.054 44.031 28.438 82.881 51.654 115.486a4.222 4.222 0 0 1 .33 4.361c-16.395 32.402-29.672 71.506-40.591 119.551a4.208 4.208 0 0 1-2.662 3.026c-36.873 13.573-75.833 35.427-119.12 66.815a4.187 4.187 0 0 1-4.209.439c-35.191-15.728-94.425-30.171-152.08-43.625a4.242 4.242 0 0 1-3.026-2.713C84.456 365.831 52.688 308.827 23.641 258.83a4.216 4.216 0 0 1-.008-4.226c16.649-29.021 36.822-92.482 56.327-153.863L82.428 93a4.237 4.237 0 0 1 3.786-2.941c21.339-1.225 75.216-29.706 127.318-57.249a6118.89 6118.89 0 0 1 32.351-17.012 4.19 4.19 0 0 1 3.752-.076c71.666 33.771 127.123 55.719 174.543 69.055a4.244 4.244 0 0 1 2.941 2.975c12.93 48.028 35.428 105.108 68.776 174.518a4.263 4.263 0 0 1-.177 4.006c-26.74 44.69-50.462 97.721-72.52 162.111a4.226 4.226 0 0 1-3.144 2.764c-47.842 9.922-112.012 40.118-162.576 65.319a4.637 4.637 0 0 1-1.917.436z" style="fill:#ddd"/></svg>