<svg xmlns="http://www.w3.org/2000/svg" width="800" height="800" viewBox="0 0 32 32"><path d="M30.917 6.728a12.13 12.13 0 0 1-3.464.961l-.061.006a6.22 6.22 0 0 0 2.687-3.354l.013-.044a12.434 12.434 0 0 1-3.82 1.464l-.082.014a6.14 6.14 0 0 0-10.455 5.635l-.008-.042A17.38 17.38 0 0 1 3.098 5.002l-.025-.031a5.953 5.953 0 0 0-.831 3.052v.039-.002.005a6.137 6.137 0 0 0 2.709 5.093l.022.014a6.1 6.1 0 0 1-2.811-.785l.031.016v.077a6.145 6.145 0 0 0 4.884 6.014l.04.007a6.26 6.26 0 0 1-2.8.099l.039.006c.813 2.459 3.068 4.212 5.739 4.264h.006a12.233 12.233 0 0 1-7.602 2.627h-.014.001a13.389 13.389 0 0 1-1.521-.089l.061.006c2.663 1.729 5.92 2.757 9.418 2.757h.014-.001.126c9.578 0 17.343-7.765 17.343-17.343v-.116.006c0-.262 0-.524-.019-.786a12.507 12.507 0 0 0 3.042-3.136l.028-.044z"/></svg>