<svg xmlns="http://www.w3.org/2000/svg" width="682.667" height="682.667" version="1.0" viewBox="0 0 512 512"><path d="M291.2 16.3c-1.7.7-41.8 28.8-89.1 62.4l-85.8 61.2-46 .3-46 .3-4.9 3c-3 1.9-6 4.9-7.9 7.9l-3 4.9v199.4l3 4.9c1.9 3 4.9 6 7.9 7.9l4.9 3 46 .3 46 .3 84.6 60.3c46.5 33.1 85.9 61.1 87.6 62.2 2.3 1.5 4.7 1.9 11.1 1.9 7.5 0 8.6-.3 12.5-3 5.9-4.2 9.7-9.9 10.9-16.5.7-3.7.9-79.6.8-224.5-.3-199.7-.4-219.3-1.9-222.6-2.4-5.2-7.8-11-12.4-13-4.6-2.1-13.3-2.4-18.3-.6zM377.2 188.6c-8.4 4.2-13.2 12.1-13.2 21.6.1 8.8 2.6 12.6 19.7 29.9l15.6 15.9-16 16.2c-18.1 18.5-19.9 21.4-19.1 31.7 1.1 15.2 15.5 25.2 30.6 21.1 4.1-1.2 6.9-3.5 21.7-18.1l17-16.8 16 15.8c8.8 8.7 17.6 16.7 19.5 17.7 4.6 2.5 17.1 2.6 21.6.2 7.6-4.2 13.4-13.4 13.4-21.6 0-8.5-1.6-10.9-19.4-29l-17-17.3 16.1-16.2c17.1-17.1 20.2-21.6 20.3-29.3 0-8.7-5.5-17.9-13.4-22.2-4.5-2.4-17-2.3-21.6.2-1.9 1-10.7 9-19.5 17.7l-16 15.8-17-16.8c-13.6-13.3-17.8-17-21.1-17.9-6.6-1.9-12.5-1.5-18.2 1.4z"/></svg>