<svg xmlns="http://www.w3.org/2000/svg" width="682.667" height="682.667" version="1.0" viewBox="0 0 512 512"><path d="M284.6 17.7c-1 .3-40 31-86.7 68.4L113 153.9l-44.2.3c-43.7.3-44.4.3-48.9 2.6-7.4 3.6-12.5 8.7-16.1 16l-3.3 6.7v153l3.3 6.7c3.6 7.3 8.7 12.4 16.1 16 4.5 2.3 5.2 2.3 48.9 2.6l44.2.3 84.8 67.8c46.7 37.3 85.9 68.1 87.3 68.4 7.5 2 15.6-1.2 19.4-7.7l2.5-4.3V29.7l-2.5-4.3c-3.8-6.5-12.1-9.7-19.9-7.7zM424.9 83c-7.1 2.1-11.9 8.7-11.9 16.5 0 6 .7 7.2 10.4 18 15.4 17.1 24.7 30.7 33.7 49.1 23.3 47.8 27 102.6 10.3 153.3-9.3 28.2-22.7 50.9-44 74.6-9.7 10.8-10.4 12-10.4 18 0 11.5 10.1 19.4 21.2 16.5 3.4-.9 6-2.9 12-9 29.1-29.9 51.2-71.4 60.3-113.5 16.5-76.4-5.4-155.8-59.1-213.4-9.1-9.8-14.9-12.4-22.5-10.1z"/><path d="M377 131.3c-7.7 2.5-12 8.3-12 16 0 6.2 1.6 9.1 10 18.3 22.5 24.8 34.2 55.6 34.2 90.4 0 34.5-11.5 65.2-33.8 89.9-8.9 10-10.4 12.6-10.4 18.6 0 8.1 4.8 14.4 12.5 16.4 4.8 1.2 10.2.2 14.3-2.7 4.2-3.1 16.8-18 23.5-28 6.5-9.5 15.1-26.8 19-37.7 7.2-20.3 10.7-48.3 8.8-69.8-3.4-38.2-16.5-69.5-41-98.2-10.7-12.6-17-15.9-25.1-13.2z"/></svg>