<svg xmlns="http://www.w3.org/2000/svg" xml:space="preserve" width="800" height="800" viewBox="0 0 512 512"><path d="M499.059 412.197c4.205 0 8.523-.046 12.941-.153l-.191-7.279c-2.442.053-4.853.092-7.226.114l.03-4.395c-18.504-.13-35.001-1.015-49.346-2.251 4.998.13 10.263.222 15.81.222 10.622 0 22.22-.283 34.727-.984l-.435-7.272a617.9 617.9 0 0 1-34.292.962c-24.364.007-43.471-1.519-56.458-3.037-6.485-.764-11.446-1.518-14.772-2.091a129.964 129.964 0 0 1-3.747-.679c-.092-.015-.152-.031-.244-.046l-15.376-13.582-2.991 3.129-2.244-2.297-5.532 4.99 6.951 7.096-6.035-2.632-1.603 3.403-2.144-1.022-2.297 4.426a956.537 956.537 0 0 1-62.357-14.17l-4.525-6.44c33.27 2.777 83.546 3.594 121.104-10.79l-7.448-5.028a4.442 4.442 0 0 1-1.869-4.502 4.416 4.416 0 0 1 3.396-3.495l24.386-5.41a4.424 4.424 0 0 0 3.465-4.166 4.416 4.416 0 0 0-3.159-4.402l-6.12-1.816a4.438 4.438 0 0 1-3.167-4.151 4.419 4.419 0 0 1 2.976-4.281l12.614-4.372a4.441 4.441 0 0 0 2.976-4.105 4.44 4.44 0 0 0-2.823-4.212l-22.808-8.851a4.896 4.896 0 0 1-.572-.268l-21.587-12.14a4.432 4.432 0 0 1-2.251-3.968 4.422 4.422 0 0 1 2.434-3.854l8.425-4.235a4.432 4.432 0 0 0 2.411-4.456 4.416 4.416 0 0 0-3.335-3.8l-58.953-14.62a4.42 4.42 0 0 1-2-7.493l.115-.107a4.433 4.433 0 0 0 1.236-4.242 4.417 4.417 0 0 0-3.037-3.205l-31.446-9.37-16.879-6.059s-10.591-7.135-13.849-7.844c2.708.534 17.924 3.41 19.541 2.381 1.892-1.214 24.006-3.648 24.006-3.648l-7.585-4.853s14.544-10.316 18.336-14.567c3.792-4.25-39.824-4.25-39.824-4.25l5.066-6.074s-30.98-.603-34.772-1.206c-3.152-.512-20.785-1.862-34.627-7.562l-.93-3.342c14.521 3.426 25.356.374 25.356.374l-12.659-11.041c14.948.603 21.938-4.586 21.938-4.586l-34.017-22.548c10.705.641 35.718 1.549 40.243-3.671 6.295-7.249-36.276-22.296-36.276-22.296l-9.477-5.464 2.908-12.278 35.016 3.777c42.342-3.029 35.619-12.674 30.988-11.568 0 0-24.319-6.669-31.262-8.89-6.944-2.228-47.477-32.254-54.421-31.14-6.944 1.114-66.004 31.14-70.635 31.14-4.632 0-42.838-7.783-42.838-7.783s-15.062-6.676-2.319 11.118c12.736 17.794 25.478 31.14 31.262 32.254l3.472 2.122v9.554s-.58 7.234-2.892 7.783c-2.312.557-9.264 3.891-15.055 7.226-5.792 3.342-7.524 8.347-7.524 8.347s1.152 3.892 17.947 1.664c4.616-.61 9.263 5.563 9.263 5.563l-.58 4.449 13.315.557s-4.983 8.08-10.186 8.63c0 0-1.74 7.79-5.792 10.568-4.044 2.778 1.159 7.226 8.683 6.669 7.532-.557 21.755-8.737 30.614-7.524l6.906 12.232-3.754 1.122 3.793 10.927-9.874 30.729a55.366 55.366 0 0 1-22.067 29.178s-30.629 21.442-33.163 22.045c-.93.229 4.586 3.914 11.919 8.486-2.274 1.701-3.739 3.074-3.739 3.074l-21.099-5.838a4.419 4.419 0 0 0-3.746.664 4.402 4.402 0 0 0-1.854 3.319l-.144 2.167C43.754 270.17 7.287 242.823 7.287 242.823L0 253.406c33.338 21.968 52.406 34.169 88.453 52.177l-.45 6.906 26.538 12.75 6.555-4.197a946.065 946.065 0 0 0 19.183 8.394l-1.244.641-6.944 32.781 60.037 71.024 10.111-17 27.18 16.39 4.426-24.28 18.466-3.96 53.589 18.527v7.287l7.585 5.464-18.329 14.574s-24.654 5.456-29.08 5.456c-4.418 0-3.792 4.25-3.792 4.25s13.278 10.926 24.654 10.926c11.378 0 44.876-8.492 46.768-9.103 1.9-.61 19.595-20.037 19.595-21.861 0-1.817 1.9-24.281-1.892-26.707-3.793-2.427-10.118-6.066-10.118-6.066l-11.37 2.427-3.167-4.251h-6.318s2.526 5.464-1.9 3.648c-2.244-.931-14.636-7.196-26.265-13.132l18.046-3.87-1.663-4.791a1563.58 1563.58 0 0 0 49.354 13.04l-.862 3.945-.526-.03-.397 7.272 22.037 1.106c.573.259 1.518.664 2.823 1.213l-18.1-1.091-.48 7.272 19.39 1.16c5.997 3.121 47.76 24.165 111.36 40.006l1.908-7.051c-33.91-8.447-61.548-18.404-80.686-26.234-8.554-3.502-15.406-6.578-20.358-8.904 20.42 7.722 58.763 20.747 109.407 31.3l1.602-7.119a809.705 809.705 0 0 1-27.447-6.227 576.376 576.376 0 0 0 32.484 4.899l.961-7.226c-3.693-.45-7.287-.931-10.819-1.434l.251-1.649c-18.458-2.609-34.719-5.966-48.675-9.469 16.535 3.12 36.092 5.929 58.457 7.653l.611-7.256a546.807 546.807 0 0 1-38.992-4.395c12.14 1.053 25.463 1.77 39.9 1.953l.1-7.287a535.524 535.524 0 0 1-34.032-1.496c6.712.276 13.74.436 21.134.436zM175.7 311.261l-21.877 11.224a952.711 952.711 0 0 1-21.931-10.08l1.61-10.836 3.701-3.555a1989.444 1989.444 0 0 0 13.209 7.783l31.606-23.678 9.477-15.178-15.795 44.32z" style="fill:#000"/></svg>