<!DOCTYPE svg PUBLIC "-//W3C//DTD SVG 1.1//EN" "http://www.w3.org/Graphics/SVG/1.1/DTD/svg11.dtd">

<!-- Uploaded to: SVG Repo, www.svgrepo.com, Transformed by: SVG Repo Mixer Tools -->
<svg height="800px" width="800px" version="1.1" id="_x32_" xmlns="http://www.w3.org/2000/svg" xmlns:xlink="http://www.w3.org/1999/xlink" viewBox="0 0 512 512" xml:space="preserve" fill="#000">

<g id="SVGRepo_bgCarrier" stroke-width="0"/>

<g id="SVGRepo_tracerCarrier" stroke-linecap="round" stroke-linejoin="round"/>

<g id="SVGRepo_iconCarrier"> <style type="text/css"> .st0{fill:#000;} </style> <g> <path class="st0" d="M499.059,412.197c4.205,0,8.523-0.046,12.941-0.153l-0.191-7.279c-2.442,0.053-4.853,0.092-7.226,0.114 l0.03-4.395c-18.504-0.13-35.001-1.015-49.346-2.251c4.998,0.13,10.263,0.222,15.81,0.222c10.622,0,22.22-0.283,34.727-0.984 l-0.435-7.272c-12.361,0.687-23.815,0.962-34.292,0.962c-24.364,0.007-43.471-1.519-56.458-3.037 c-6.485-0.764-11.446-1.518-14.772-2.091c-1.664-0.282-2.915-0.511-3.747-0.679c-0.092-0.015-0.152-0.031-0.244-0.046 l-15.376-13.582l-2.991,3.129l-2.244-2.297l-5.532,4.99l6.951,7.096l-6.035-2.632l-1.603,3.403l-2.144-1.022l-2.297,4.426 c-21.564-4.144-42.357-8.92-62.357-14.17l-4.525-6.44c33.27,2.777,83.546,3.594,121.104-10.79l-7.448-5.028 c-1.465-0.992-2.197-2.763-1.869-4.502c0.328-1.74,1.663-3.114,3.396-3.495l24.386-5.41c1.969-0.434,3.396-2.152,3.465-4.166 c0.076-2.022-1.228-3.83-3.159-4.402l-6.12-1.816c-1.846-0.55-3.121-2.228-3.167-4.151c-0.046-1.923,1.16-3.655,2.976-4.281 l12.614-4.372c1.755-0.611,2.937-2.251,2.976-4.105c0.03-1.862-1.099-3.541-2.823-4.212l-22.808-8.851 c-0.198-0.077-0.389-0.168-0.572-0.268l-21.587-12.14c-1.427-0.808-2.289-2.327-2.251-3.968c0.038-1.633,0.969-3.121,2.434-3.854 l8.425-4.235c1.656-0.831,2.617-2.609,2.411-4.456c-0.206-1.839-1.534-3.358-3.335-3.8l-58.953-14.62 c-1.572-0.381-2.8-1.595-3.22-3.151c-0.413-1.564,0.053-3.228,1.22-4.342l0.115-0.107c1.137-1.098,1.61-2.708,1.236-4.242 c-0.366-1.534-1.526-2.755-3.037-3.205l-31.446-9.37l-16.879-6.059c0,0-10.591-7.135-13.849-7.844 c2.708,0.534,17.924,3.41,19.541,2.381c1.892-1.214,24.006-3.648,24.006-3.648l-7.585-4.853c0,0,14.544-10.316,18.336-14.567 c3.792-4.25-39.824-4.25-39.824-4.25l5.066-6.074c0,0-30.98-0.603-34.772-1.206c-3.152-0.512-20.785-1.862-34.627-7.562 l-0.93-3.342c14.521,3.426,25.356,0.374,25.356,0.374l-12.659-11.041c14.948,0.603,21.938-4.586,21.938-4.586l-34.017-22.548 c10.705,0.641,35.718,1.549,40.243-3.671c6.295-7.249-36.276-22.296-36.276-22.296l-9.477-5.464l2.908-12.278l35.016,3.777 c42.342-3.029,35.619-12.674,30.988-11.568c0,0-24.319-6.669-31.262-8.89c-6.944-2.228-47.477-32.254-54.421-31.14 c-6.944,1.114-66.004,31.14-70.635,31.14c-4.632,0-42.838-7.783-42.838-7.783s-15.062-6.676-2.319,11.118 c12.736,17.794,25.478,31.14,31.262,32.254l3.472,2.122v9.554c0,0-0.58,7.234-2.892,7.783c-2.312,0.557-9.264,3.891-15.055,7.226 c-5.792,3.342-7.524,8.347-7.524,8.347s1.152,3.892,17.947,1.664c4.616-0.61,9.263,5.563,9.263,5.563l-0.58,4.449l13.315,0.557 c0,0-4.983,8.08-10.186,8.63c0,0-1.74,7.79-5.792,10.568c-4.044,2.778,1.159,7.226,8.683,6.669 c7.532-0.557,21.755-8.737,30.614-7.524l6.906,12.232l-3.754,1.122l3.793,10.927l-9.874,30.729 c-3.838,11.949-11.621,22.235-22.067,29.178c0,0-30.629,21.442-33.163,22.045c-0.93,0.229,4.586,3.914,11.919,8.486 c-2.274,1.701-3.739,3.074-3.739,3.074l-21.099-5.838c-1.289-0.351-2.663-0.114-3.746,0.664c-1.091,0.77-1.77,1.992-1.854,3.319 l-0.144,2.167C43.754,270.17,7.287,242.823,7.287,242.823L0,253.406c33.338,21.968,52.406,34.169,88.453,52.177l-0.45,6.906 l26.538,12.75l6.555-4.197c6.371,2.869,12.774,5.677,19.183,8.394l-1.244,0.641l-6.944,32.781l60.037,71.024l10.111-17l27.18,16.39 l4.426-24.28l18.466-3.96l53.589,18.527v7.287l7.585,5.464l-18.329,14.574c0,0-24.654,5.456-29.08,5.456 c-4.418,0-3.792,4.25-3.792,4.25s13.278,10.926,24.654,10.926c11.378,0,44.876-8.492,46.768-9.103 c1.9-0.61,19.595-20.037,19.595-21.861c0-1.817,1.9-24.281-1.892-26.707c-3.793-2.427-10.118-6.066-10.118-6.066l-11.37,2.427 l-3.167-4.251h-6.318c0,0,2.526,5.464-1.9,3.648c-2.244-0.931-14.636-7.196-26.265-13.132l18.046-3.87l-1.663-4.791 c19.878,5.593,36.772,9.942,49.354,13.04l-0.862,3.945l-0.526-0.03l-0.397,7.272l22.037,1.106c0.573,0.259,1.518,0.664,2.823,1.213 l-18.1-1.091l-0.48,7.272l19.39,1.16c5.997,3.121,47.76,24.165,111.36,40.006l1.908-7.051 c-33.91-8.447-61.548-18.404-80.686-26.234c-8.554-3.502-15.406-6.578-20.358-8.904c20.42,7.722,58.763,20.747,109.407,31.3 l1.602-7.119c-9.607-2.006-18.771-4.098-27.447-6.227c10.05,1.816,20.885,3.48,32.484,4.899l0.961-7.226 c-3.693-0.45-7.287-0.931-10.819-1.434l0.251-1.649c-18.458-2.609-34.719-5.966-48.675-9.469 c16.535,3.12,36.092,5.929,58.457,7.653l0.611-7.256c-14.162-1.091-27.173-2.625-38.992-4.395c12.14,1.053,25.463,1.77,39.9,1.953 l0.1-7.287c-12.172-0.152-23.526-0.695-34.032-1.496C484.637,412.037,491.665,412.197,499.059,412.197z M175.7,311.261 l-21.877,11.224c-7.554-3.358-14.865-6.722-21.931-10.08l1.61-10.836l3.701-3.555c7.356,4.372,13.209,7.783,13.209,7.783 l31.606-23.678l9.477-15.178L175.7,311.261z"/> </g> </g>

</svg>