<?xml version="1.0" encoding="utf-8"?>

<!DOCTYPE svg PUBLIC "-//W3C//DTD SVG 1.1//EN" "http://www.w3.org/Graphics/SVG/1.1/DTD/svg11.dtd">
<!-- Uploaded to: SVG Repo, www.svgrepo.com, Generator: SVG Repo Mixer Tools -->
<svg height="800px" width="800px" version="1.1" id="_x32_" xmlns="http://www.w3.org/2000/svg" xmlns:xlink="http://www.w3.org/1999/xlink" 
	 viewBox="0 0 512 512"  xml:space="preserve">
<style type="text/css">
	.st0{fill:#000000;}
</style>
<g>
	<path class="st0" d="M509.097,262.991l-90.364-125.785c-2.554-3.968-6.506-6.554-10.88-7.155c-4.366-0.57-8.765,0.903-12.108,4.074
		c0,0-60.806,65.141-78.988,80.656c-15.36,13.132-25.548,1.146-27.037-7.847c-1.219-7.449,1.204-19.028,3.692-22.354
		c0,0,3.423-7.115,10.425-29.102c7.984-25.029-10.555-47.309-14.694-33.599c-4.139,13.718-17.946,39.616-17.946,39.616H256h-15.198
		c0,0-13.807-25.898-17.945-39.616c-4.139-13.71-22.679,8.57-14.694,33.599c7.001,21.987,10.425,29.102,10.425,29.102
		c2.488,3.326,4.911,14.905,3.691,22.354c-1.488,8.993-11.676,20.979-27.036,7.847c-18.182-15.515-78.989-80.656-78.989-80.656
		c-3.342-3.171-7.74-4.643-12.108-4.074c-4.375,0.601-8.326,3.188-10.88,7.155L2.903,262.991c-3.912,6.058-3.871,14.198,0.13,20.206
		c3.976,6.002,11.002,8.522,17.418,6.238l46.56-17.784c3.35-1.285,7.042-0.894,10.115,1.073c3.066,1.952,5.196,5.278,5.863,9.132
		l5.944,34.567c0.748,4.317,3.35,7.96,6.993,9.765c3.635,1.798,7.847,1.521,11.27-0.74l51.35-33.965
		c5.603-1.277,11.392,0.91,15.1,5.708l70.434,91.031c2.984,3.854,7.335,6.082,11.92,6.082c4.586,0,8.937-2.228,11.921-6.082
		l70.434-91.031c3.708-4.798,9.498-6.985,15.1-5.708l51.35,33.965c3.424,2.261,7.636,2.537,11.271,0.74
		c3.643-1.805,6.245-5.448,6.993-9.765l5.944-34.567c0.666-3.854,2.797-7.18,5.862-9.132c3.074-1.968,6.766-2.358,10.115-1.073
		l46.56,17.784c6.416,2.285,13.442-0.236,17.418-6.238C512.968,277.189,513.009,269.049,509.097,262.991z"/>
</g>
</svg>