<svg xmlns="http://www.w3.org/2000/svg" xml:space="preserve" width="800" height="800" viewBox="0 0 512 512"><path d="m509.097 262.991-90.364-125.785c-2.554-3.968-6.506-6.554-10.88-7.155-4.366-.57-8.765.903-12.108 4.074 0 0-60.806 65.141-78.988 80.656-15.36 13.132-25.548 1.146-27.037-7.847-1.219-7.449 1.204-19.028 3.692-22.354 0 0 3.423-7.115 10.425-29.102 7.984-25.029-10.555-47.309-14.694-33.599-4.139 13.718-17.946 39.616-17.946 39.616h-30.395s-13.807-25.898-17.945-39.616c-4.139-13.71-22.679 8.57-14.694 33.599 7.001 21.987 10.425 29.102 10.425 29.102 2.488 3.326 4.911 14.905 3.691 22.354-1.488 8.993-11.676 20.979-27.036 7.847-18.182-15.515-78.989-80.656-78.989-80.656-3.342-3.171-7.74-4.643-12.108-4.074-4.375.601-8.326 3.188-10.88 7.155L2.903 262.991c-3.912 6.058-3.871 14.198.13 20.206 3.976 6.002 11.002 8.522 17.418 6.238l46.56-17.784c3.35-1.285 7.042-.894 10.115 1.073 3.066 1.952 5.196 5.278 5.863 9.132l5.944 34.567c.748 4.317 3.35 7.96 6.993 9.765 3.635 1.798 7.847 1.521 11.27-.74l51.35-33.965c5.603-1.277 11.392.91 15.1 5.708l70.434 91.031c2.984 3.854 7.335 6.082 11.92 6.082 4.586 0 8.937-2.228 11.921-6.082l70.434-91.031c3.708-4.798 9.498-6.985 15.1-5.708l51.35 33.965c3.424 2.261 7.636 2.537 11.271.74 3.643-1.805 6.245-5.448 6.993-9.765l5.944-34.567c.666-3.854 2.797-7.18 5.862-9.132 3.074-1.968 6.766-2.358 10.115-1.073l46.56 17.784c6.416 2.285 13.442-.236 17.418-6.238 4-6.008 4.041-14.148.129-20.206z" style="fill:#000"/></svg>