<svg xmlns="http://www.w3.org/2000/svg" xml:space="preserve" width="800" height="800" viewBox="0 0 259.136 259.136"><path d="M253.52 142.729c-3.911-1.2-7.846-2.335-11.774-3.489-7.163-31.434-16.923-60.373-6.613-92.384 6.454-4.553 12.909-9.1 19.379-13.601 1.942-1.351.093-4.562-1.869-3.197-5.803 4.038-11.692 8.011-17.536 12.018.016-.477-.189-.945-.759-1.024-22.926-3.165-55.577-7.334-71.604-25.694a1.549 1.549 0 0 0-.732-.473c1.293-4.142 2.562-8.291 3.945-12.411.828-2.469-3.091-3.543-3.899-1.075-1.324 4.047-2.565 8.123-3.823 12.193-24.118 6.544-51.104 16.03-75.467 6.431-3.754-6.33-7.529-12.644-11.373-18.909-.824-1.344-2.793-.166-2.098 1.227 3.11 6.237 6.299 12.441 9.501 18.64C68.562 31.18 59.952 43.264 50.139 53.896 39.935 64.952 27.36 81.683 11.774 83.94c-.559.081-.868.445-1.052.877a.612.612 0 0 0-.228.224l-5.27-1.106c-1.437-.302-2.035 1.786-.61 2.212 1.944.581 3.9 1.118 5.848 1.684 1.505 36.632 9.031 69.116 2.487 106.287-.162.92.355 1.594 1.021 1.922-.546.545-.705 1.533.141 1.903 30.819 13.477 66.689 16.668 88.694 44.769-1.144 5.114-2.248 10.255-3.412 15.355-.247 1.084 1.328 1.52 1.665.459 1.42-4.479 2.694-8.996 4.022-13.499.734.248 1.562.014 2.073-.471 16.824-2.423 32.945-6.865 50.113-7.295 13.538-.34 34.345-1.279 45.561 7.964.884 1.59 1.783 3.176 2.664 4.767 1.382 2.493 5.21.262 3.825-2.236-5.725-10.32-11.36-20.74-17.033-31.117.046-.049.116-.053.151-.119 14.252-26.672 30.488-49.63 50.003-72.66 3.331.941 6.671 1.85 9.992 2.833 2.543.753 3.616-3.19 1.091-3.964zm-14.511-4.3a1490.682 1490.682 0 0 0-23.365-6.607c-6.55-21.891-14.178-42.222-8.337-65.231a7659.945 7659.945 0 0 1 22.7-16.129c-8.048 28.99-1.855 60.224 9.002 87.967zM71.5 103.696a2249.173 2249.173 0 0 0 18.901 4.362c-.791 11.407-.951 22.868-1.668 34.283-7.395 5.211-14.692 10.533-22.025 15.815 5.454-17.74 7.352-36.023 4.792-54.46zm3.965-5.012c11.193-7.231 22.708-17.619 28.77-29.557 2.222 4.103 4.386 8.231 6.626 12.325-7.185 6.025-13.477 13.145-19.028 20.694-5.456-1.173-10.911-2.305-16.368-3.462zm57.36 8.92c-4.73-8.579-9.488-17.14-14.275-25.682 7.003.032 14.027-.446 20.943-1.572a1950.008 1950.008 0 0 0-6.668 27.254zm1.56 16.289c3.41 6.075 6.844 12.137 10.27 18.203-2.257.032-4.586.428-6.718.649-2.622.272-5.248.563-7.864.909 1.437-6.586 2.871-13.174 4.312-19.761zm-7.896-14.146a3619.451 3619.451 0 0 0-30.828-6.786c5.093-6.769 10.651-13.033 16.467-19.185a4244.552 4244.552 0 0 0 14.361 25.971zm.002 6.312c-6.323 4.338-12.614 8.716-18.911 13.086 2.095-5.181 4.203-10.622 5.645-15.99 4.421.97 8.843 1.938 13.266 2.904zm2.935 6.008c-1.415 6.131-2.767 12.278-4.145 18.419-2.452-1.973-5.678-3.325-8.379-4.653-1.427-.701-2.882-1.341-4.34-1.973 5.624-3.927 11.257-7.838 16.864-11.793zm.091 24.125c3.326.035 6.668-.039 9.986-.162 2.376-.088 4.812.037 7.101-.479 2.695 4.767 5.395 9.523 8.094 14.287-9.687.753-19.553 1.713-29.054 3.898a4313.439 4313.439 0 0 0 3.873-17.544zm9.467-27.402c8.79 1.922 17.577 3.863 26.355 5.835-3.11 2.341-5.893 5.32-8.548 8.063-2.231 2.306-4.321 4.721-6.334 7.203-3.827-7.034-7.622-14.08-11.473-21.101zm2.879-5.503c7.485-5.312 14.952-10.647 22.42-15.981.619 7.473 1.854 15.043 3.926 22.237a2323.402 2323.402 0 0 0-26.346-6.256zm22.156-22.789c-6.661-3.491-13.164-7.106-19.54-11.152 1.092-4.591 2.238-9.168 3.379-13.747 8.34 6.541 18.585 13.161 28.969 16.223-4.273 2.891-8.535 5.782-12.808 8.676zm-2.784 1.891c-7.806 5.29-15.613 10.58-23.404 15.895a2131.995 2131.995 0 0 1 5.801-25.381c5.445 3.784 11.404 7.021 17.603 9.486zm-21.124-14.398c-7.832.212-15.654.463-23.493.501-2.082-3.705-4.228-7.366-6.324-11.062 11.135.909 22.969.037 33.535-3.694a1568.963 1568.963 0 0 0-3.718 14.255zm-47.542 30.553c5.976 1.345 11.95 2.696 17.934 4.013-3.267 5.821-5.694 12.804-7.413 18.91-.085.303-.08.567-.034.808-3.652 2.543-7.279 5.117-10.919 7.674.666-10.436 1.098-20.968.432-31.405zm17.185 27.279c2.074 1.033 4.172 2.019 6.212 3.123 2.791 1.511 5.586 3.606 8.615 4.655-1.272 5.693-2.488 11.391-3.74 17.088-8.459-5.268-17.546-9.814-26.501-14.224 5.142-3.539 10.289-7.071 15.414-10.642zm15.401 30.096c9.983-.441 19.958-1.645 29.925-2.342.599-.042 1.048-.308 1.35-.681 4.082 7.202 8.154 14.4 12.234 21.599-9.011-2.237-18.345-2.809-27.574-1.628-6.002.768-15.008 2.04-21.09 5.548a2068.93 2068.93 0 0 0 5.155-22.496zm26.653-23.547c2.401-2.489 4.782-4.998 7.281-7.388 3.294-3.149 7.167-5.903 10.206-9.279.046-.051.062-.11.1-.163 4.038.913 8.068 1.862 12.101 2.796-4.346 3.894-8.002 8.839-11.502 13.375-3.725 4.828-7.256 9.869-10.31 15.161-2.626-4.835-5.247-9.668-7.876-14.502zm18.971-22.207c-.948-8.412-2.156-16.81-3.195-25.212 4.096-2.927 8.186-5.846 12.279-8.774 1.629 12.467 2.781 25.042 4.755 37.455-4.61-1.165-9.218-2.338-13.839-3.469zm8.976-40.327c-4.872-2.559-10.066-4.623-14.847-7.34-5.636-3.203-10.902-6.863-16.124-10.668l.082-.314a.574.574 0 0 0 .082-.313c1.39-5.489 2.832-10.965 4.312-16.432 5.416 7.006 15.163 11.558 22.583 15.123 7.913 3.802 16.205 6.175 24.756 5.808-6.949 4.712-13.887 9.429-20.844 14.136zm-35.159-19.04c-12.315 1.872-24.047 3.31-36.588 2.632-2.851-5.011-5.759-9.982-8.634-14.977 5.82 1.856 11.991 1.517 18.375.639 11.035-1.516 22.657-3.54 32.577-8.84-1.943 6.838-3.899 13.672-5.73 20.546zm-41.776 5.697c-4.115 5.314-7.829 10.896-12.589 15.762-5.883 6.014-12.538 10.967-19.648 15.395-8.742-1.847-17.447-3.663-26.18-5.494C65.7 85.24 84.273 69.834 93.752 49.485c3.022 5.67 6.011 11.354 9.068 17.01zm-33.569 36.683c1.196 20.011-.784 39.295-7.319 58.408a2276.029 2276.029 0 0 0-23.264 17.057c7.334-26.641 7.049-55.801 1.036-82.771a1437.12 1437.12 0 0 0 29.547 7.306zm-1.687 61.455c7.26 2.816 14.793 4.853 21.943 7.965 9.552 4.157 17.567 10.199 24.925 17.465-1.126 5.173-2.261 10.337-3.389 15.507-17.747-15.804-45.92-22.18-69.475-23.808a1986.777 1986.777 0 0 0 25.996-17.129zm2.187-1.458a2568.407 2568.407 0 0 0 22.524-15.285c9.024 5.696 18.255 11.505 27.82 16.203-1.596 7.282-3.177 14.557-4.762 21.838-13.058-12.937-28.582-17.358-45.582-22.756zm49.407 28.732c4.321-3.598 21.815-5.377 24.15-5.582 8.638-.76 16.874.142 25.388 1.747.721.136 1.288-.141 1.672-.569 5.237 9.242 10.462 18.486 15.672 27.732-21.125-12.244-47.843-14.128-70.928-6.761a1364.224 1364.224 0 0 0 4.046-16.567zm41.875-32.546c4.202-5.74 8.259-11.554 12.765-17.074 3.621-4.436 7.927-8.48 11.275-13.122a1636.595 1636.595 0 0 1 24.067 5.83c-17.627 8.8-28.685 28.499-36.108 46.453-3.999-7.364-8.001-14.72-11.999-22.087zm26.152-35.083c.099-13.526-1.803-27.174-3.958-40.503 6.579-4.706 13.159-9.39 19.737-14.085-4.493 20.872 1.394 42.036 9.906 61.397-8.545-2.318-17.093-4.625-25.685-6.809zM160.903 18.376c15.701 18.064 48.809 24.031 71.766 24.808-.211.196-.46.336-.577.663-.045.126-.077.254-.122.38-9.288 6.369-18.537 12.766-27.871 19.102-9.923-.322-18.959-2.767-27.94-7.448-7.233-3.77-17.263-8.526-21.584-15.849a822.601 822.601 0 0 1 6.328-21.656zm-3.53-2.036a1240.561 1240.561 0 0 0-6.361 21.488c-16.129 5.12-38.106 13.052-54.377 5.876a2708.906 2708.906 0 0 0-10.922-18.705c21.897 7.765 51.053.709 71.66-8.659zM46.183 63.561C57.971 51.208 71.136 37.822 79.729 22.81a2565.958 2565.958 0 0 0 12.724 24.238C80.022 68.32 62.178 83.51 38.121 90.392c-.188-.022-.373.023-.494.163-.074.021-.14.051-.214.071-.036.01-.055.033-.089.045-6.689-1.401-13.372-2.806-20.059-4.21 11.886-3.37 20.576-14.158 28.918-22.9zm-30.44 132.357c.24-.202.44-.472.514-.887 6.24-34.886 5.11-72.065-3.637-106.577a1023.526 1023.526 0 0 0 25.14 6.924c1.743 29.555 5.102 56.963-3.3 86.321-.015.051-.001.093-.012.143-6.229 4.666-12.438 9.353-18.578 14.117-.041-.015-.085-.028-.127-.041zm2.336.732a1519.374 1519.374 0 0 0 21.024-13.325c24.579 7.586 51.351 7.523 71.05 26.325-2.085 9.543-4.229 19.044-6.347 28.563-21.382-25.044-55.228-32.01-85.727-41.563zm181.096 42.045c-9.346-4.557-23.851-5.023-31.954-5.314-10.953-.393-22.015.244-32.874 1.731-3.427.47-6.78.995-10.173 1.712-6.07 1.281-11.307 5.034-16.546 6.636.657-.201.682-1.168 0-1.358a13.273 13.273 0 0 0-.867-.217 22.765 22.765 0 0 1-.546-.678c2.868-9.916 5.612-19.864 8.151-29.864 26.405-6.326 49.366-2.733 73.766 8.682.241.113.472.154.693.157 3.472 6.169 6.905 12.342 10.35 18.513zm-7.904-23.901c-5.495-10.057-11.029-20.068-16.504-30.15 8.845-18.705 19.764-39.468 39.43-47.969.177-.076.299-.192.42-.307a1119.662 1119.662 0 0 1 24.444 6.535c-20.58 19.481-37.557 45.617-47.79 71.891z"/></svg>