<svg xmlns="http://www.w3.org/2000/svg" xmlns:xlink="http://www.w3.org/1999/xlink" width="298" zoomAndPan="magnify" viewBox="0 0 223.5 42.75" height="57" preserveAspectRatio="xMidYMid meet" version="1.0"><defs><g/><clipPath id="eb6239bc88"><path d="M 0.402344 0 L 222.601562 0 L 222.601562 42.5 L 0.402344 42.5 Z M 0.402344 0 " clip-rule="nonzero"/></clipPath></defs><g clip-path="url(#eb6239bc88)"><path fill="#f4f6fc" d="M 0.292969 0.441406 L 223.378906 0.441406 L 223.378906 42.765625 L 0.292969 42.765625 L 0.292969 0.441406 " fill-opacity="1" fill-rule="nonzero"/></g><g fill="#000000" fill-opacity="1"><g transform="translate(3.913507, 34.339961)"><g><path d="M 14.570312 -21.195312 C 14.570312 -24.230469 12.921875 -25.847656 9.917969 -25.847656 L 6.300781 -25.847656 C 3.261719 -25.847656 1.617188 -24.230469 1.617188 -21.195312 L 1.617188 -4.652344 C 1.617188 -1.617188 3.261719 0 6.300781 0 L 9.917969 0 C 12.921875 0 14.570312 -1.617188 14.570312 -4.652344 L 14.570312 -8.140625 C 14.570312 -8.464844 14.378906 -8.660156 14.054688 -8.660156 L 10.824219 -8.660156 C 10.46875 -8.660156 10.304688 -8.464844 10.304688 -8.140625 L 10.304688 -5.558594 C 10.304688 -4.683594 9.855469 -4.265625 9.015625 -4.265625 L 7.332031 -4.265625 C 6.492188 -4.265625 6.042969 -4.683594 6.042969 -5.558594 L 6.042969 -20.289062 C 6.042969 -21.128906 6.460938 -21.582031 7.332031 -21.582031 L 9.015625 -21.582031 C 9.855469 -21.582031 10.304688 -21.128906 10.304688 -20.289062 L 10.304688 -17.703125 C 10.304688 -17.382812 10.46875 -17.1875 10.824219 -17.1875 L 14.054688 -17.1875 C 14.378906 -17.1875 14.570312 -17.382812 14.570312 -17.703125 Z M 14.570312 -21.195312 "/></g></g></g><g fill="#000000" fill-opacity="1"><g transform="translate(20.099667, 34.339961)"><g><path d="M 1.617188 -4.652344 C 1.617188 -1.617188 3.230469 0 6.269531 0 L 9.886719 0 C 12.921875 0 14.539062 -1.617188 14.539062 -4.652344 L 14.539062 -21.195312 C 14.539062 -24.230469 12.921875 -25.847656 9.886719 -25.847656 L 6.269531 -25.847656 C 3.230469 -25.847656 1.617188 -24.230469 1.617188 -21.195312 Z M 7.203125 -4.167969 C 6.363281 -4.167969 5.914062 -4.585938 5.914062 -5.460938 L 5.914062 -20.386719 C 5.914062 -21.226562 6.363281 -21.679688 7.203125 -21.679688 L 9.078125 -21.679688 C 9.917969 -21.679688 10.371094 -21.226562 10.371094 -20.386719 L 10.371094 -5.460938 C 10.371094 -4.585938 9.917969 -4.167969 9.078125 -4.167969 Z M 7.203125 -4.167969 "/></g></g></g><g fill="#000000" fill-opacity="1"><g transform="translate(36.25352, 34.339961)"><g><path d="M 1.617188 -0.515625 C 1.617188 -0.160156 1.777344 0 2.132812 0 L 9.886719 0 C 12.921875 0 14.539062 -1.617188 14.539062 -4.652344 L 14.539062 -21.160156 C 14.539062 -24.199219 12.921875 -25.847656 9.886719 -25.847656 L 2.132812 -25.847656 C 1.777344 -25.847656 1.617188 -25.652344 1.617188 -25.328125 Z M 6.007812 -4.265625 L 6.007812 -21.582031 L 8.980469 -21.582031 C 9.820312 -21.582031 10.273438 -21.128906 10.273438 -20.257812 L 10.273438 -5.558594 C 10.273438 -4.683594 9.820312 -4.265625 8.980469 -4.265625 Z M 6.007812 -4.265625 "/></g></g></g><g fill="#000000" fill-opacity="1"><g transform="translate(52.40737, 34.339961)"><g><path d="M 14.507812 -25.328125 C 14.507812 -25.652344 14.378906 -25.847656 13.988281 -25.847656 L 2.101562 -25.847656 C 1.808594 -25.847656 1.617188 -25.652344 1.617188 -25.328125 L 1.617188 -0.515625 C 1.617188 -0.195312 1.808594 0 2.101562 0 L 13.988281 0 C 14.378906 0 14.507812 -0.195312 14.507812 -0.515625 L 14.507812 -3.746094 C 14.507812 -4.101562 14.378906 -4.265625 13.988281 -4.265625 L 5.914062 -4.265625 L 5.914062 -10.789062 L 12.082031 -10.789062 C 12.40625 -10.789062 12.601562 -10.984375 12.601562 -11.339844 L 12.601562 -14.539062 C 12.601562 -14.894531 12.40625 -15.085938 12.082031 -15.085938 L 5.914062 -15.085938 L 5.914062 -21.550781 L 13.988281 -21.550781 C 14.378906 -21.550781 14.507812 -21.777344 14.507812 -22.097656 Z M 14.507812 -25.328125 "/></g></g></g><g fill="#000000" fill-opacity="1"><g transform="translate(68.528918, 34.339961)"><g><path d="M 10.921875 -25.847656 C 10.566406 -25.847656 10.273438 -25.554688 10.273438 -25.199219 L 10.273438 -5.558594 C 10.273438 -4.683594 9.820312 -4.265625 8.980469 -4.265625 L 7.300781 -4.265625 C 6.460938 -4.265625 6.007812 -4.683594 6.007812 -5.558594 L 6.007812 -25.199219 C 6.007812 -25.554688 5.71875 -25.847656 5.363281 -25.847656 L 2.261719 -25.847656 C 1.90625 -25.847656 1.617188 -25.554688 1.617188 -25.199219 L 1.617188 -4.652344 C 1.617188 -1.617188 3.230469 0 6.269531 0 L 9.886719 0 C 12.921875 0 14.539062 -1.617188 14.539062 -4.652344 L 14.539062 -25.199219 C 14.539062 -25.554688 14.246094 -25.847656 13.890625 -25.847656 Z M 10.921875 -25.847656 "/></g></g></g><g fill="#000000" fill-opacity="1"><g transform="translate(84.682771, 34.339961)"><g><path d="M 1.484375 -25.847656 C 1.164062 -25.847656 0.96875 -25.652344 0.96875 -25.328125 L 0.96875 -22.097656 C 0.96875 -21.777344 1.164062 -21.582031 1.484375 -21.582031 L 5.234375 -21.582031 L 5.234375 -0.515625 C 5.234375 -0.160156 5.429688 0 5.75 0 L 9.109375 0 C 9.464844 0 9.628906 -0.160156 9.628906 -0.515625 L 9.628906 -21.582031 L 13.375 -21.582031 C 13.730469 -21.582031 13.890625 -21.777344 13.890625 -22.097656 L 13.890625 -25.328125 C 13.890625 -25.652344 13.730469 -25.847656 13.375 -25.847656 Z M 1.484375 -25.847656 "/></g></g></g><g fill="#000000" fill-opacity="1"><g transform="translate(99.544318, 34.339961)"><g><path d="M 6.269531 -25.847656 C 3.261719 -25.847656 1.617188 -24.230469 1.617188 -21.195312 L 1.617188 -13.570312 C 1.617188 -12.957031 1.90625 -12.566406 2.488281 -12.375 L 10.144531 -9.855469 L 10.144531 -5.558594 C 10.144531 -4.683594 9.691406 -4.265625 8.851562 -4.265625 L 7.300781 -4.265625 C 6.492188 -4.265625 6.007812 -4.683594 6.007812 -5.558594 L 6.007812 -8.042969 C 6.007812 -8.398438 5.847656 -8.5625 5.492188 -8.5625 L 2.132812 -8.5625 C 1.808594 -8.5625 1.617188 -8.398438 1.617188 -8.042969 L 1.617188 -4.652344 C 1.617188 -1.617188 3.261719 0 6.269531 0 L 9.886719 0 C 12.921875 0 14.539062 -1.617188 14.539062 -4.652344 L 14.539062 -12.117188 C 14.539062 -12.730469 14.246094 -13.085938 13.699219 -13.3125 L 6.007812 -15.832031 L 6.007812 -20.289062 C 6.007812 -21.128906 6.492188 -21.582031 7.300781 -21.582031 L 8.851562 -21.582031 C 9.726562 -21.582031 10.144531 -21.128906 10.144531 -20.289062 L 10.144531 -17.769531 C 10.144531 -17.445312 10.339844 -17.253906 10.660156 -17.253906 L 14.023438 -17.253906 C 14.378906 -17.253906 14.539062 -17.445312 14.539062 -17.769531 L 14.539062 -21.195312 C 14.539062 -24.230469 12.921875 -25.847656 9.886719 -25.847656 Z M 6.269531 -25.847656 "/></g></g></g><g fill="#000000" fill-opacity="1"><g transform="translate(115.698171, 34.339961)"><g><path d="M 17.1875 0 C 17.574219 0 17.703125 -0.195312 17.640625 -0.550781 L 12.277344 -25.394531 C 12.210938 -25.71875 12.019531 -25.847656 11.726562 -25.847656 L 7.238281 -25.847656 C 6.945312 -25.847656 6.753906 -25.71875 6.6875 -25.394531 L 1.324219 -0.550781 C 1.226562 -0.195312 1.390625 0 1.746094 0 L 5.203125 0 C 5.492188 0 5.652344 -0.160156 5.71875 -0.453125 L 6.589844 -5.167969 L 12.339844 -5.167969 L 13.246094 -0.453125 C 13.3125 -0.160156 13.472656 0 13.761719 0 Z M 11.535156 -8.917969 L 7.398438 -8.917969 L 9.464844 -20.191406 Z M 11.535156 -8.917969 "/></g></g></g><g fill="#000000" fill-opacity="1"><g transform="translate(134.630484, 34.339961)"><g><path d="M 12.890625 -25.847656 C 12.503906 -25.847656 12.277344 -25.652344 12.179688 -25.265625 L 8.753906 -7.949219 L 5.363281 -25.265625 C 5.265625 -25.652344 5.039062 -25.847656 4.652344 -25.847656 L 1.582031 -25.847656 C 1.097656 -25.847656 0.90625 -25.589844 1 -25.136719 L 6.429688 -0.582031 C 6.527344 -0.195312 6.753906 0 7.140625 0 L 10.371094 0 C 10.757812 0 10.984375 -0.195312 11.082031 -0.582031 L 16.542969 -25.136719 C 16.636719 -25.589844 16.445312 -25.847656 15.960938 -25.847656 Z M 12.890625 -25.847656 "/></g></g></g><g fill="#000000" fill-opacity="1"><g transform="translate(152.173567, 34.339961)"><g><path d="M 17.1875 0 C 17.574219 0 17.703125 -0.195312 17.640625 -0.550781 L 12.277344 -25.394531 C 12.210938 -25.71875 12.019531 -25.847656 11.726562 -25.847656 L 7.238281 -25.847656 C 6.945312 -25.847656 6.753906 -25.71875 6.6875 -25.394531 L 1.324219 -0.550781 C 1.226562 -0.195312 1.390625 0 1.746094 0 L 5.203125 0 C 5.492188 0 5.652344 -0.160156 5.71875 -0.453125 L 6.589844 -5.167969 L 12.339844 -5.167969 L 13.246094 -0.453125 C 13.3125 -0.160156 13.472656 0 13.761719 0 Z M 11.535156 -8.917969 L 7.398438 -8.917969 L 9.464844 -20.191406 Z M 11.535156 -8.917969 "/></g></g></g><g fill="#000000" fill-opacity="1"><g transform="translate(171.105881, 34.339961)"><g/></g></g><g fill="#000000" fill-opacity="1"><g transform="translate(179.182812, 34.339961)"><g><path d="M 2.132812 -25.847656 C 1.808594 -25.8125 1.617188 -25.652344 1.617188 -25.296875 L 1.617188 -22.066406 C 1.617188 -21.742188 1.808594 -21.550781 2.132812 -21.550781 L 9.789062 -21.550781 L 1.808594 -0.742188 C 1.648438 -0.289062 1.839844 0 2.328125 0 L 5.6875 -0.03125 C 6.074219 -0.03125 6.300781 -0.195312 6.429688 -0.550781 L 15.863281 -25.070312 C 16.023438 -25.523438 15.894531 -25.847656 15.378906 -25.847656 Z M 2.132812 -25.847656 "/></g></g></g><g fill="#000000" fill-opacity="1"><g transform="translate(196.079732, 34.339961)"><g><path d="M 1.617188 -0.644531 C 1.617188 -0.226562 1.839844 0 2.261719 0 L 5.203125 0 C 5.621094 0 5.847656 -0.226562 5.847656 -0.644531 L 5.847656 -3.617188 C 5.847656 -4.039062 5.621094 -4.265625 5.203125 -4.265625 L 2.261719 -4.265625 C 1.839844 -4.265625 1.617188 -4.039062 1.617188 -3.617188 Z M 1.617188 -0.644531 "/></g></g></g><g fill="#000000" fill-opacity="1"><g transform="translate(203.542816, 34.339961)"><g><path d="M 1.617188 -4.652344 C 1.617188 -1.617188 3.230469 0 6.269531 0 L 9.886719 0 C 12.921875 0 14.539062 -1.617188 14.539062 -4.652344 L 14.539062 -21.195312 C 14.539062 -24.230469 12.921875 -25.847656 9.886719 -25.847656 L 6.269531 -25.847656 C 3.230469 -25.847656 1.617188 -24.230469 1.617188 -21.195312 Z M 7.203125 -4.167969 C 6.363281 -4.167969 5.914062 -4.585938 5.914062 -5.460938 L 5.914062 -20.386719 C 5.914062 -21.226562 6.363281 -21.679688 7.203125 -21.679688 L 9.078125 -21.679688 C 9.917969 -21.679688 10.371094 -21.226562 10.371094 -20.386719 L 10.371094 -5.460938 C 10.371094 -4.585938 9.917969 -4.167969 9.078125 -4.167969 Z M 7.203125 -4.167969 "/></g></g></g></svg>