<?xml version="1.0" encoding="UTF-8"?><svg xmlns="http://www.w3.org/2000/svg" xmlns:xlink="http://www.w3.org/1999/xlink" height="374.6" preserveAspectRatio="xMidYMid meet" version="1.0" viewBox="-0.3 -0.1 125.6 374.6" width="125.6" zoomAndPan="magnify"><g id="change1_1"><path d="M9,308.3c-0.6,1.5,0.7,2.9,2.1,2.7c3.9-0.4,7.4-3.4,10.6-5.6c1.8-1.2,3.6-2.4,5.5-3.5 c0.9-0.5,2.5-1.7,3.9-2.4c1.7,2.8,3.6,5.5,5.5,8.1c0.7,0.9,1.3,1.9,1.9,2.8c-3.2,1.6-6,3.9-8.4,6.9c-1.1,1.3-2,2.7-2.7,4.2 c-1.7-2-3.5-3.9-4.9-5.8c-1.3-1.7-3.7-1.6-5.3-0.8c-6.9,3.2-14,12.3-17,19.5c-0.5,1.2,0.7,2.1,1.7,1.8c3.9-1.2,7-4,10.4-6.4 c2.6-1.8,5.2-3.6,7.6-5.5c1.9,1.2,3.4,2.8,5,4.4c-1.1,5.2-0.8,10.8,0.8,16c0.1,0.4,0.2,0.7,0.4,1.1c-3.5,0.2-6.8,1.4-9,3.4 c-5.4,4.9-8.7,16.6-6.1,23.6c0.4,1.2,2.2,1.7,3.1,0.8c4.5-4.6,4.2-12.6,8.5-17.4c2.2-2.5,5.7-1.7,9.2-1c14.9,15,48,6.5,56.3-12.9 c3.4,0.9,6.8,1.7,9.7,3.9c5.9,4.4,8.3,12.1,13.5,17.2c1.1,1,2.8-0.2,2.6-1.6c-1.4-7.8-6.8-15.8-12.9-20.4c-2.9-2.2-7-4-11.1-4.9 c0.3-1.9,0.4-3.8,0.3-5.6c1.3-0.6,2.6-1.2,3.9-1.8c3.6-1.7,7.8-4.1,11.6-2.6c8.2,3.1,9.9,15.5,17.3,20c1.2,0.7,2.3-0.9,1.9-2.1 c-2.9-8.6-7.9-20.8-16.1-25c-6.1-3.2-13.9,0.1-20.5,3.8c-1.7-4-4.6-7.3-8.4-9.5c0.2-0.2,0.4-0.4,0.6-0.7c3.8-4.1,5.6-9,8-14 c1.6-3.5,2-4.6,5.7-4.2c2.8,0.3,5.6,2.5,7.9,4c4.3,2.9,8.5,6.3,13.2,8.5c1.4,0.6,2.4-1.1,1.7-2.3c-4.8-8-12.9-13.7-21-17.6 c-4.9-2.3-9.5-0.2-13.2,2.8c-3.9,3.2-7,8.1-9.9,12.3c-1.4,2.1-3,4.2-4.6,6.1c-3.2-1-6.4-1.6-9.7-1.9c0-1.7,0-3.3,0-5 c0.3-19.1,0-38.1-0.2-57.2c-0.5-34.8-1.8-69.5-1.8-104.3c0-46.8-0.1-93.5-0.4-140.3h-2.9c0.2,43.8,0.3,87.7,0.4,131.5 c0,30.3,0.8,60.5,1.4,90.8c0.5,28,1.7,56.3,0.8,84.4c-2.1,0-4.2,0.1-6.3,0.4c-2,0.3-4,0.7-6,1.3c-2.8-4.7-6.5-9.2-8.6-13.7 c-0.5-1-1.4-1.7-2.4-1.7c-4.5-0.3-9,2.9-12.8,5.2C16,300.5,10.9,303.7,9,308.3z" fill="#0F2744"/></g></svg>